<svg width="52" height="52" viewBox="0 0 52 52" fill="none" xmlns="http://www.w3.org/2000/svg">
<path d="M25.8888 51.7962C40.1867 51.7962 51.7775 40.2013 51.7775 25.8981C51.7775 11.595 40.1867 0 25.8888 0C11.5908 0 0 11.595 0 25.8981C0 40.2013 11.5908 51.7962 25.8888 51.7962Z" fill="#229AD2"/>
<path d="M35.2301 20.1623C34.9155 16.9006 32.1007 15.8069 28.5469 15.4952L28.5464 10.9707L25.7926 10.971L25.7931 15.3761C25.0701 15.376 24.3303 15.3902 23.5952 15.4048L23.5953 10.9705L20.8436 10.9702L20.843 15.4933C20.247 15.5054 19.6616 15.5165 19.0908 15.5168L19.0905 15.5028L15.2933 15.5011L15.2942 18.4425C15.2942 18.4425 17.3273 18.4039 17.2935 18.4413C17.6629 18.3949 18.0358 18.4953 18.332 18.721C18.6281 18.9467 18.824 19.2797 18.8773 19.6483L18.878 24.8025C18.9753 24.8025 19.0725 24.8089 19.169 24.8217L18.8789 24.8219L18.878 32.0427C18.8704 32.1707 18.8375 32.2958 18.7813 32.411C18.725 32.5262 18.6466 32.6292 18.5505 32.7139C18.4544 32.7987 18.3425 32.8636 18.2212 32.9049C18.0999 32.9463 17.9716 32.9632 17.8438 32.9548C17.879 32.986 15.8425 32.9541 15.8425 32.9541L15.2959 36.2438L18.8794 36.2438C19.5462 36.2446 20.2022 36.256 20.8455 36.2603L20.8472 40.837L23.5974 40.8377L23.5976 36.3099C24.352 36.3258 25.0828 36.3318 25.7962 36.3312L25.7954 40.838L28.5485 40.8379L28.549 36.2701C33.1775 36.0048 36.4176 34.8385 36.8183 30.4917C37.1427 26.9907 35.497 25.4282 32.8693 24.7961C34.4651 23.9818 35.4637 22.5491 35.2301 20.1623ZM31.3784 29.9466C31.3795 33.3664 25.5269 32.9775 23.6602 32.9786L23.6603 26.9157C25.5267 26.9163 31.3761 26.3804 31.3784 29.9466ZM30.0965 21.3928C30.0959 24.504 25.2142 24.1405 23.6593 24.1407L23.659 18.642C25.2139 18.6418 30.0966 18.1476 30.0965 21.3928Z" fill="white"/>
</svg>
