<svg width="568" height="420" viewBox="0 0 568 420" fill="none" xmlns="http://www.w3.org/2000/svg">
<g clip-path="url(#clip0)">
<path d="M115.128 236.788H19.8481V246.267H115.128V236.788Z" fill="#506AE3"/>
<path d="M80.8177 227.236H8.33838V236.716H80.8177V227.236Z" fill="#506AE3"/>
<path d="M44.5417 246.269H8.33838V255.748H44.5417V246.269Z" fill="#506AE3"/>
<path d="M76.9569 236.429H7.09998V237.147H76.9569V236.429Z" fill="#2242D2"/>
<path d="M47.0177 245.909H26.403V246.627H47.0177V245.909Z" fill="#2242D2"/>
<path d="M20.2119 236.788H19.4834V246.267H20.2119V236.788Z" fill="#2242D2"/>
<path d="M44.9064 227.236H44.178V236.716H44.9064V227.236Z" fill="#2242D2"/>
<path d="M67.8511 236.788H67.1227V246.267H67.8511V236.788Z" fill="#2242D2"/>
<path d="M27.7148 255.389H7.09998V256.108H27.7148V255.389Z" fill="#2242D2"/>
<g opacity="0.4">
<path opacity="0.4" d="M186.636 405.345C263.838 405.345 326.423 400.908 326.423 395.434C326.423 389.96 263.838 385.523 186.636 385.523C109.434 385.523 46.8489 389.96 46.8489 395.434C46.8489 400.908 109.434 405.345 186.636 405.345Z" fill="#C5C9F6"/>
</g>
<g opacity="0.4">
<path opacity="0.4" d="M512.32 403.333L511.882 401.969C516.544 400.533 521.716 400.82 526.742 401.179C531.259 401.466 535.556 401.682 539.49 400.82L539.854 402.185C535.702 403.118 531.113 402.903 526.669 402.616C521.789 402.328 516.763 402.041 512.32 403.333Z" fill="#2242D2"/>
</g>
<g opacity="0.4">
<path opacity="0.4" d="M549.398 406.781H523.101V408.218H549.398V406.781Z" fill="#2242D2"/>
</g>
<g opacity="0.4">
<path opacity="0.4" d="M418.571 402.185C397.883 402.185 393.003 399.815 391.182 398.881C386.52 396.655 386.156 395.433 386.01 395.003C385.865 394.644 385.937 394.213 386.083 393.926C386.739 392.776 388.56 392.705 394.096 392.705C395.626 392.705 397.519 392.633 399.632 392.633C402.909 392.561 406.261 392.489 409.539 392.489C412.234 392.489 414.929 392.417 417.624 392.346H417.77C421.995 392.274 425.564 392.202 427.24 393.926C427.75 394.428 428.405 395.578 427.823 396.655C426.73 398.522 422.432 398.594 417.915 398.45C413.836 398.306 407.28 397.373 406.479 396.296C406.334 396.08 406.261 395.865 406.334 395.578C406.479 394.787 406.625 394.141 421.558 394.644L421.485 396.08C414.856 395.865 411.36 395.865 409.539 396.008C411.505 396.439 414.71 396.942 418.062 397.085C424.545 397.301 426.293 396.655 426.657 396.008C426.876 395.649 426.293 395.003 426.293 395.003C425.054 393.71 421.412 393.782 417.843 393.853H417.697C415.002 393.926 412.306 393.926 409.611 393.998C406.334 394.069 402.983 394.069 399.705 394.141C397.519 394.213 395.698 394.213 394.169 394.213C390.6 394.285 387.758 394.285 387.467 394.716C387.467 394.931 388.341 396.008 391.91 397.732C393.95 398.737 400.142 401.754 431.173 400.605C434.014 400.533 440.643 400.246 448 397.947C452.735 396.439 455.212 395.362 455.212 394.716C455.066 394.428 453.609 392.92 435.908 391.412C423.743 390.407 411.068 390.048 398.321 390.263V388.827C411.141 388.539 423.816 388.97 436.054 389.975C456.231 391.627 456.523 393.423 456.669 394.5C456.96 396.439 453.245 397.804 448.438 399.312C440.934 401.682 434.16 401.897 431.246 402.041C426.438 402.113 422.214 402.185 418.571 402.185Z" fill="#2242D2"/>
</g>
<g opacity="0.4">
<path opacity="0.4" d="M277.391 377.953C256.703 377.953 251.822 375.584 250.001 374.65C245.339 372.423 244.975 371.203 244.83 370.772C244.684 370.413 244.757 369.982 244.903 369.695C245.558 368.545 247.379 368.474 252.915 368.474C254.445 368.474 256.339 368.402 258.452 368.402C261.73 368.33 265.08 368.258 268.358 368.258C271.053 368.258 273.749 368.186 276.444 368.115H276.589C280.815 368.043 284.384 367.971 286.059 369.695C286.715 370.341 287.224 371.418 286.642 372.423C285.55 374.291 281.252 374.363 276.736 374.219C272.656 374.075 266.1 373.142 265.299 372.064C265.153 371.849 265.08 371.634 265.153 371.347C265.299 370.556 265.444 369.91 280.377 370.413L280.305 371.849C273.675 371.634 270.179 371.634 268.358 371.777C270.325 372.208 273.53 372.711 276.881 372.855C283.364 373.07 285.112 372.423 285.476 371.777C285.695 371.418 285.112 370.772 285.112 370.772C283.874 369.479 280.232 369.551 276.662 369.623H276.517C273.822 369.695 271.127 369.695 268.431 369.766C265.153 369.838 261.802 369.838 258.524 369.91C256.339 369.982 254.518 369.982 252.915 369.982C249.346 370.054 246.505 370.054 246.213 370.484C246.213 370.7 247.088 371.777 250.657 373.501C252.697 374.507 258.961 377.523 289.92 376.373C292.98 376.23 299.39 376.014 306.747 373.716C311.482 372.208 313.959 371.131 313.959 370.484C313.812 370.197 312.356 368.689 294.655 367.181C282.49 366.176 269.815 365.817 257.067 366.032V364.595C269.888 364.308 282.563 364.739 294.801 365.745C314.978 367.397 315.269 369.192 315.415 370.269C315.707 372.208 311.991 373.573 307.184 375.081C299.681 377.451 292.907 377.666 289.993 377.81C285.258 377.882 281.033 377.953 277.391 377.953Z" fill="#2242D2"/>
</g>
<path d="M479.833 248.208H385.064V254.6H479.833V248.208Z" fill="#506AE3"/>
<path d="M456.814 241.816H408.154V248.207H456.814V241.816Z" fill="#506AE3"/>
<path d="M419.154 247.848H405.314V248.567H419.154V247.848Z" fill="#2242D2"/>
<path d="M416.241 248.208H415.512V254.6H416.241V248.208Z" fill="#2242D2"/>
<path d="M432.85 241.816H432.121V248.207H432.85V241.816Z" fill="#2242D2"/>
<path d="M448.218 248.208H447.49V254.6H448.218V248.208Z" fill="#2242D2"/>
<path d="M448.364 247.848H441.881V248.567H448.364V247.848Z" fill="#2242D2"/>
<g opacity="0.4">
<path opacity="0.4" d="M-1.26042 270.48C10.0866 240.701 54.4434 231.649 73.2327 227.838C176.461 206.794 233.933 278.183 287.427 247.372C317.563 230.061 302.753 205.524 349.909 162.96C356.909 156.607 382.698 133.897 444.591 121.191C493.958 111.106 540.157 101.577 552.167 122.382C565.209 145.014 519.968 172.727 515.768 241.178C512.747 290.492 533.378 323.843 520.189 333.848C504.642 345.602 468.685 305.182 450.78 318.92C440.76 326.622 450.044 343.378 441.865 356.639C419.76 392.294 348.804 368.63 227.671 373.712C127.167 377.921 101.895 397.296 59.4538 373.712C20.1074 351.954 -14.0811 304.229 -1.26042 270.48Z" fill="#C5C9F6"/>
</g>
<g opacity="0.8">
<path opacity="0.8" d="M108.183 66.3647H13.4127V72.7567H108.183V66.3647Z" fill="#C5C9F6"/>
<path opacity="0.8" d="M85.1651 59.9731H36.5056V66.3649H85.1651V59.9731Z" fill="#C5C9F6"/>
</g>
<g opacity="0.46">
<g opacity="0.46">
<path opacity="0.5" d="M528.855 119.366H354.759C354.759 100.766 362.407 86.5452 374.718 76.9937C387.028 67.3701 404.074 62.4865 422.94 62.4865H433.357L431.973 11.9267L439.257 11.7831L440.641 62.4146H460.674C498.334 62.4146 528.855 82.2367 528.855 119.366Z" fill="#C5C9F6"/>
</g>
</g>
<path d="M259.625 141.917C265.297 141.917 269.896 137.383 269.896 131.791C269.896 126.198 265.297 121.665 259.625 121.665C253.952 121.665 249.354 126.198 249.354 131.791C249.354 137.383 253.952 141.917 259.625 141.917Z" fill="#C5C9F6"/>
<path d="M195.087 156.567C199.512 156.567 203.1 153.03 203.1 148.667C203.1 144.304 199.512 140.768 195.087 140.768C190.661 140.768 187.074 144.304 187.074 148.667C187.074 153.03 190.661 156.567 195.087 156.567Z" fill="#506AE3"/>
<path d="M195.085 154.915C190.496 154.915 186.708 151.181 186.708 146.657C186.708 142.132 190.496 138.398 195.085 138.398C199.674 138.398 203.462 142.132 203.462 146.657C203.462 151.181 199.747 154.915 195.085 154.915ZM195.085 139.187C190.86 139.187 187.436 142.563 187.436 146.728C187.436 150.894 190.86 154.269 195.085 154.269C199.31 154.269 202.734 150.894 202.734 146.728C202.734 142.563 199.31 139.187 195.085 139.187Z" fill="#2242D2"/>
<path d="M191.882 144.431C192.246 146.37 192.756 148.309 193.048 150.248C193.12 150.536 193.484 150.75 193.703 150.536C194.577 149.961 195.378 148.74 196.107 148.237C197.2 147.375 198.219 146.442 199.312 145.508C199.604 145.22 199.457 144.79 199.021 144.79C197.783 144.718 196.544 144.431 195.378 144.287C194.723 144.143 193.339 144.143 192.465 143.928C192.1 143.856 191.809 144.143 191.882 144.431Z" fill="#2242D2"/>
<path d="M216.503 102.848L215.848 102.201C213.662 100.119 209.801 96.8871 208.636 96.8871C208.636 96.8871 208.636 96.8871 208.563 96.8871L185.108 98.7547C182.922 98.8982 180.737 98.18 179.134 96.7436C177.532 95.2351 176.585 93.1526 176.658 90.998L176.73 80.4406C176.73 78.286 177.677 76.2035 179.353 74.7671C180.956 73.3307 183.214 72.6125 185.399 72.8281L208.782 75.1262C212.861 75.4853 215.921 78.8607 215.848 82.8829L215.775 89.346C215.775 91.4292 216.431 101.914 216.431 102.058L216.503 102.848ZM208.636 96.0968C210.239 96.0968 214.027 99.4008 215.702 100.981C215.557 98.3235 215.046 90.9259 215.119 89.1311L215.192 82.6673C215.192 79.0042 212.424 75.9879 208.782 75.6288L185.399 73.3307C183.432 73.1151 181.393 73.7619 179.936 75.1262C178.479 76.4191 177.605 78.3581 177.605 80.2971L177.532 90.8545C177.532 92.7935 178.333 94.7325 179.79 96.0254C181.247 97.3897 183.214 98.0365 185.253 97.8923L208.709 96.0254C208.563 96.0968 208.563 96.0968 208.636 96.0968Z" fill="#2242D2"/>
<path d="M182.849 89.7762H191.007C191.59 89.7762 192.027 89.1301 191.736 88.6275C191.153 87.4067 189.769 85.6112 187.146 85.6112C183.796 85.6112 182.266 87.3346 182.048 88.9145C181.975 89.4171 182.339 89.7762 182.849 89.7762Z" fill="#2242D2"/>
<path d="M186.929 85.6837C188.015 85.6837 188.895 84.8157 188.895 83.7447C188.895 82.6737 188.015 81.8057 186.929 81.8057C185.842 81.8057 184.962 82.6737 184.962 83.7447C184.962 84.8157 185.842 85.6837 186.929 85.6837Z" fill="#2242D2"/>
<path d="M207.689 82.811H196.908C196.689 82.811 196.544 82.6675 196.544 82.4519C196.544 82.237 196.689 82.0928 196.908 82.0928H207.689C207.907 82.0928 208.053 82.237 208.053 82.4519C208.053 82.6675 207.907 82.811 207.689 82.811Z" fill="#2242D2"/>
<path d="M207.689 85.8979H196.908C196.689 85.8979 196.544 85.7544 196.544 85.5395C196.544 85.3239 196.689 85.1804 196.908 85.1804H207.689C207.907 85.1804 208.053 85.3239 208.053 85.5395C208.053 85.7544 207.907 85.8979 207.689 85.8979Z" fill="#2242D2"/>
<path d="M207.689 88.9874H196.908C196.689 88.9874 196.544 88.8432 196.544 88.6283C196.544 88.4127 196.689 88.2692 196.908 88.2692H207.689C207.907 88.2692 208.053 88.4127 208.053 88.6283C208.053 88.8432 207.907 88.9874 207.689 88.9874Z" fill="#2242D2"/>
<path d="M313.166 61.6249C312.874 61.6249 312.583 61.5531 312.364 61.3376C311.927 60.9785 311.854 60.4758 312.073 59.9731C314.695 54.084 316.152 50.0622 316.152 49.0568L316.08 42.5931C316.08 38.5714 319.066 35.196 323.145 34.8369C323.363 34.8369 340.628 33.9032 348.932 34.6214C352.21 34.9087 353.739 38.4995 353.303 44.3886C352.72 50.924 349.806 58.5367 346.965 58.6085C346.892 58.6085 346.892 58.6085 346.82 58.6085L323.363 56.7413C323.072 56.7413 321.542 57.0285 313.821 61.5531C313.602 61.6249 313.384 61.6249 313.166 61.6249ZM340.7 35.0523C332.542 35.0523 323.363 35.5551 323.291 35.5551C319.649 35.9141 316.88 38.9305 316.88 42.5931L316.954 49.0568C316.954 50.5649 314.695 56.0231 312.801 60.2604C312.728 60.4758 312.801 60.6913 312.947 60.8349C313.093 60.9785 313.311 61.0503 313.53 60.9067C319.211 57.6031 322.563 55.9513 323.51 56.0231L346.965 57.8904H347.038C349.223 57.8904 352.137 50.924 352.647 44.3886C352.865 41.8032 352.938 35.6986 349.005 35.3396C346.601 35.1241 343.687 35.0523 340.7 35.0523Z" fill="#2242D2"/>
<path d="M341.794 52.0018C344.931 52.0018 347.475 49.4938 347.475 46.4C347.475 43.3062 344.931 40.7982 341.794 40.7982C338.656 40.7982 336.112 43.3062 336.112 46.4C336.112 49.4938 338.656 52.0018 341.794 52.0018Z" fill="#506AE3"/>
<path d="M298.449 175.887C299.857 175.887 300.999 174.761 300.999 173.373C300.999 171.985 299.857 170.86 298.449 170.86C297.041 170.86 295.899 171.985 295.899 173.373C295.899 174.761 297.041 175.887 298.449 175.887Z" fill="#2242D2"/>
<path d="M298.451 180.628C294.371 180.628 291.093 177.396 291.093 173.374C291.093 169.352 294.371 166.12 298.451 166.12C302.53 166.12 305.808 169.352 305.808 173.374C305.808 177.396 302.53 180.628 298.451 180.628ZM298.451 166.91C294.808 166.91 291.821 169.855 291.821 173.446C291.821 177.037 294.808 179.982 298.451 179.982C302.093 179.982 305.079 177.037 305.079 173.446C305.079 169.855 302.093 166.91 298.451 166.91Z" fill="#2242D2"/>
<path d="M333.926 44.6042H323.145C322.927 44.6042 322.781 44.4605 322.781 44.2451C322.781 44.0296 322.927 43.886 323.145 43.886H333.926C334.145 43.886 334.29 44.0296 334.29 44.2451C334.29 44.4605 334.145 44.6042 333.926 44.6042Z" fill="#2242D2"/>
<path d="M333.926 47.692H323.145C322.927 47.692 322.781 47.5484 322.781 47.333C322.781 47.1175 322.927 46.9739 323.145 46.9739H333.926C334.145 46.9739 334.29 47.1175 334.29 47.333C334.29 47.5484 334.145 47.692 333.926 47.692Z" fill="#2242D2"/>
<path d="M277.981 77.9275H239.52V35.4115H277.981V77.9275ZM240.248 77.2093H277.253V36.1297H240.248V77.2093Z" fill="#2242D2"/>
<path d="M282.861 33.6875H234.566V40.0793H282.861V33.6875Z" fill="#2242D2"/>
<path d="M237.627 37.7805C238.151 37.7805 238.575 37.3625 238.575 36.8468C238.575 36.3312 238.151 35.9132 237.627 35.9132C237.105 35.9132 236.681 36.3312 236.681 36.8468C236.681 37.3625 237.105 37.7805 237.627 37.7805Z" fill="#AFE3E2"/>
<path d="M242.068 37.7805C242.592 37.7805 243.016 37.3625 243.016 36.8468C243.016 36.3312 242.592 35.9132 242.068 35.9132C241.546 35.9132 241.121 36.3312 241.121 36.8468C241.121 37.3625 241.546 37.7805 242.068 37.7805Z" fill="#F6A7AB"/>
<g opacity="0.9">
<path opacity="0.9" d="M283.445 57.2432H248.771C247.897 57.2432 247.169 56.5251 247.169 55.6632V46.9733C247.169 46.1114 247.897 45.3933 248.771 45.3933H283.445C284.319 45.3933 285.047 46.1114 285.047 46.9733V55.6632C285.047 56.5251 284.319 57.2432 283.445 57.2432Z" fill="#C5C9F6"/>
</g>
<g opacity="0.9">
<path opacity="0.9" d="M283.445 72.3253H248.771C247.897 72.3253 247.169 71.6071 247.169 70.7454V62.0554C247.169 61.1936 247.897 60.4755 248.771 60.4755H283.445C284.319 60.4755 285.047 61.1936 285.047 62.0554V70.7454C285.047 71.6071 284.319 72.3253 283.445 72.3253Z" fill="#506AE3"/>
</g>
<path d="M222.985 124.393C220.217 124.393 218.032 123.388 217.085 122.813C214.754 121.521 213.005 119.438 211.986 117.499C211.038 117.427 210.091 117.283 209.364 117.068C203.973 115.56 201.423 109.599 200.622 107.157L201.351 106.941C202.151 109.311 204.483 115.057 209.582 116.421C210.092 116.565 210.82 116.709 211.621 116.78C211.257 116.062 211.038 115.344 210.893 114.698C210.602 113.405 210.747 112.4 211.257 111.753C211.986 110.82 213.516 110.461 214.535 110.963C215.191 111.323 215.7 112.041 215.992 112.975C216.283 114.195 216.065 115.416 215.409 116.206C214.754 116.996 213.807 117.355 212.714 117.427C213.734 119.223 215.336 121.018 217.376 122.095C218.542 122.742 221.747 124.249 225.535 123.244C229.468 122.167 232.6 118.935 233.62 114.626L234.348 114.769C233.256 119.294 229.978 122.813 225.753 123.89C224.806 124.249 223.859 124.393 222.985 124.393ZM213.443 111.466C212.86 111.466 212.204 111.682 211.84 112.184C211.476 112.687 211.403 113.549 211.621 114.554C211.767 115.273 212.059 115.991 212.423 116.78C213.369 116.78 214.317 116.565 214.899 115.847C215.409 115.201 215.555 114.195 215.336 113.189C215.191 112.471 214.754 111.897 214.317 111.61C214.025 111.538 213.734 111.466 213.443 111.466Z" fill="#2242D2"/>
<path d="M290.072 95.5228L289.636 94.9488C294.152 91.7169 301.509 86.0434 304.568 81.1595C303.257 80.9439 302.019 80.3692 301.364 79.2919C300.707 78.0711 300.781 76.0607 302.092 74.9834C303.33 73.9061 305.37 73.834 306.316 74.7678C307.409 75.8451 306.754 77.9276 306.39 79.0049C306.244 79.5075 306.025 80.0822 305.734 80.5848C306.899 80.6569 307.992 80.5848 308.721 80.5848C315.277 80.2257 323.29 76.4912 326.859 72.1106C328.316 70.3865 328.898 68.5913 328.68 67.0832C328.461 65.5749 327.296 64.1386 325.329 62.8459L325.766 62.2714C327.952 63.7077 329.19 65.2877 329.481 67.0113C329.773 68.735 329.044 70.6742 327.514 72.6132C323.726 77.2094 315.713 81.016 308.794 81.3751C307.992 81.4465 306.681 81.5186 305.37 81.3751C302.238 86.3304 294.662 92.2195 290.072 95.5228ZM304.423 74.7678C303.768 74.7678 303.039 74.9834 302.529 75.4139C301.509 76.2756 301.436 77.8562 302.019 78.8614C302.529 79.7952 303.694 80.2257 304.933 80.4413C305.224 79.8666 305.516 79.2919 305.661 78.7179C305.952 77.7841 306.535 75.9886 305.734 75.1983C305.442 74.9113 304.933 74.7678 304.423 74.7678Z" fill="#2242D2"/>
<path d="M327.953 111.682C326.496 111.682 325.112 111.395 323.874 110.82C322.563 110.245 321.251 109.24 320.158 108.163C316.589 109.958 310.98 110.963 307.047 111.466L306.974 110.748C312.656 109.958 316.953 108.881 319.649 107.588C318.119 105.792 317.245 103.781 317.901 102.346C318.484 101.053 320.377 100.262 321.688 100.694C323.145 101.268 323.728 103.351 323.583 104.572C323.437 105.792 322.417 106.87 320.814 107.731C321.762 108.737 322.927 109.599 324.165 110.102C328.317 111.969 333.999 110.389 338.952 106.08L339.463 106.583C335.747 109.958 331.595 111.682 327.953 111.682ZM320.814 101.34C319.94 101.34 318.848 101.914 318.556 102.704C318.046 103.781 318.848 105.649 320.305 107.301C321.834 106.439 322.708 105.505 322.781 104.572C322.927 103.566 322.417 101.842 321.324 101.483C321.251 101.412 321.033 101.34 320.814 101.34Z" fill="#2242D2"/>
<path d="M194.502 54.8742L193.992 54.3714C197.416 50.996 201.276 48.3388 205.575 46.3278C207.978 45.2506 210.528 44.3169 213.077 43.7424L213.223 44.4606C210.673 45.0351 208.197 45.897 205.866 47.046C201.64 48.9851 197.853 51.5705 194.502 54.8742Z" fill="#2242D2"/>
<path d="M193.336 60.1885L192.826 59.6858C196.25 56.3103 200.111 53.6531 204.408 51.6421C206.812 50.5649 209.361 49.6313 211.911 49.0568L212.057 49.7749C209.507 50.3495 207.03 51.2113 204.699 52.3603C200.475 54.2276 196.687 56.8849 193.336 60.1885Z" fill="#2242D2"/>
<g opacity="0.4">
<path opacity="0.4" d="M323.729 392.417C323.146 392.417 322.708 392.13 322.708 391.699L320.815 251.08H326.715L324.821 391.699C324.821 392.13 324.311 392.417 323.729 392.417Z" fill="#2242D2"/>
</g>
<g opacity="0.4">
<path opacity="0.4" d="M281.405 392.417C280.822 392.417 280.385 392.13 280.385 391.699L278.491 251.08H284.392L282.497 391.699C282.425 392.13 281.987 392.417 281.405 392.417Z" fill="#2242D2"/>
</g>
<path d="M304.862 196.426L248.554 224.292L248.263 223.717C247.461 222.137 248.116 220.198 249.719 219.408L300.2 194.416C301.802 193.625 303.769 194.272 304.571 195.851L304.862 196.426Z" fill="#2242D2"/>
<path d="M248.626 224.292L253.361 229.032L309.669 201.095L304.862 196.427L297.213 198.079L250.447 221.635L248.626 224.292Z" fill="#2242D2"/>
<path d="M304.572 197.072L330.432 127.194C328.392 126.476 326.207 127.481 325.478 129.492L302.241 192.189C301.513 194.199 302.606 196.354 304.572 197.072Z" fill="#2242D2"/>
<path d="M330.432 127.194L338.881 128.272L308.505 200.951L304.572 197.073L305.373 189.389L328.028 129.349L330.432 127.194Z" fill="#2242D2"/>
<path fill-rule="evenodd" clip-rule="evenodd" d="M300.198 194.415C300.797 194.12 301.446 194.025 302.066 194.104C301.958 193.485 302.006 192.829 302.238 192.189L325.475 129.492C326.203 127.481 328.389 126.476 330.429 127.194H330.428H330.429L338.878 128.271L308.796 200.248L309.668 201.094L253.36 229.031L248.625 224.291L248.661 224.237L248.552 224.291L248.261 223.716C247.459 222.136 248.115 220.197 249.718 219.407L300.198 194.415Z" fill="white" fill-opacity="0.57"/>
<path d="M318.628 242.75H254.89C251.321 242.75 248.334 239.877 248.334 236.286C248.334 232.695 251.247 229.822 254.89 229.822C255.327 229.822 255.618 230.11 255.618 230.54C255.618 230.972 255.327 231.259 254.89 231.259C252.121 231.259 249.791 233.485 249.791 236.286C249.791 239.015 252.049 241.313 254.89 241.313H318.628C319.065 241.313 319.356 241.6 319.356 242.032C319.356 242.462 318.992 242.75 318.628 242.75Z" fill="#506AE3"/>
<path d="M225.171 242.462H222.767V236.214L225.171 235.64V242.462Z" fill="#506AE3"/>
<path d="M321.541 392.776C320.74 392.776 320.157 392.346 320.157 391.699L318.191 250.721H324.892L322.926 391.699C322.998 392.346 322.343 392.776 321.541 392.776ZM318.992 251.511L320.886 391.699C320.886 391.843 321.177 392.058 321.541 392.058C321.906 392.058 322.197 391.843 322.197 391.699L324.091 251.511H318.992Z" fill="#2242D2"/>
<path d="M279.219 392.776C278.418 392.776 277.835 392.346 277.835 391.699L275.868 250.721H282.57L280.603 391.699C280.603 392.346 279.948 392.776 279.219 392.776ZM276.597 251.511L278.491 391.699C278.491 391.843 278.782 392.058 279.146 392.058C279.511 392.058 279.802 391.843 279.802 391.699L281.696 251.511H276.597Z" fill="#2242D2"/>
<path d="M330.866 252.301H179.57C177.749 252.301 176.364 250.865 176.364 249.141V247.92C176.364 246.125 177.821 244.76 179.57 244.76H330.794C332.615 244.76 333.999 246.197 333.999 247.92V249.141C334.072 250.937 332.615 252.301 330.866 252.301Z" fill="#2242D2"/>
<path d="M309.667 201.094L253.358 228.959L253.067 228.385C252.266 226.805 252.922 224.866 254.524 224.076L305.005 199.083C306.608 198.293 308.574 198.939 309.375 200.519L309.667 201.094Z" fill="#2242D2"/>
<path d="M309.67 201.095L339.463 128.559C337.496 127.769 335.237 128.703 334.436 130.642L307.557 196.14C306.756 198.151 307.703 200.305 309.67 201.095Z" fill="#2242D2"/>
<path d="M231.509 242.821H228.304V235.352L231.509 234.49V242.821ZM229.105 242.103H230.853V235.424L229.105 235.855V242.103Z" fill="#2242D2"/>
<path d="M286.431 242.39H283.736L277.982 219.122L281.187 217.47L286.431 242.39ZM284.319 241.672H285.557L280.677 218.547L278.856 219.481L284.319 241.672Z" fill="#506AE3"/>
<path d="M313.092 201.023L253.871 229.535C253.142 229.894 252.268 229.751 251.758 229.176L243.745 220.702C243.162 220.199 242.362 220.917 242.798 221.492L250.301 232.121C250.811 232.839 251.831 233.126 252.632 232.695L314.04 202.747C314.404 202.604 314.623 202.245 314.623 201.886C314.549 201.167 313.749 200.736 313.092 201.023Z" fill="#506AE3"/>
<path d="M268.509 212.084C268.291 211.725 268.218 211.366 269.019 210.863C269.747 210.433 270.112 210.648 270.33 211.007" fill="#2242D2"/>
<path d="M255.47 217.541L264.065 213.017L267.707 216.105L258.748 220.773L255.47 217.541Z" fill="#2242D2"/>
<path d="M269.456 213.017C269.238 212.658 269.165 212.299 269.966 211.796C270.695 211.366 271.059 211.581 271.278 211.94" fill="#2242D2"/>
<path d="M270.404 213.879C270.185 213.52 270.112 213.161 270.913 212.658C271.642 212.227 272.006 212.443 272.224 212.802" fill="#2242D2"/>
<path d="M271.349 214.813C271.131 214.454 271.058 214.095 271.859 213.592C272.588 213.161 272.952 213.377 273.17 213.736" fill="#2242D2"/>
<path d="M272.444 210.143C272.225 209.784 272.152 209.425 272.954 208.923C273.682 208.491 274.046 208.707 274.264 209.066" fill="#2242D2"/>
<path d="M273.391 211.077C273.172 210.718 273.1 210.359 273.901 209.856C274.629 209.425 274.993 209.641 275.212 210" fill="#2242D2"/>
<path d="M274.337 211.939C274.118 211.58 274.045 211.221 274.846 210.718C275.575 210.288 275.939 210.502 276.158 210.862" fill="#2242D2"/>
<path d="M275.282 212.872C275.063 212.513 274.991 212.154 275.792 211.651C276.52 211.221 276.884 211.436 277.103 211.795" fill="#2242D2"/>
<path d="M276.448 208.204C276.23 207.845 276.157 207.486 276.958 206.984C277.687 206.553 278.051 206.768 278.27 207.127" fill="#2242D2"/>
<path d="M277.397 209.138C277.178 208.779 277.106 208.42 277.907 207.917C278.635 207.487 278.999 207.702 279.218 208.061" fill="#2242D2"/>
<path d="M278.27 210.001C278.052 209.642 277.979 209.282 278.781 208.78C279.508 208.349 279.873 208.564 280.091 208.923" fill="#2242D2"/>
<path d="M279.216 210.934C278.998 210.575 278.925 210.215 279.726 209.713C280.455 209.282 280.819 209.497 281.038 209.856" fill="#2242D2"/>
<path d="M280.384 206.267C280.165 205.908 280.092 205.549 280.894 205.046C281.622 204.615 281.986 204.83 282.205 205.189" fill="#2242D2"/>
<path d="M281.331 207.2C281.113 206.841 281.039 206.482 281.841 205.979C282.569 205.548 282.934 205.763 283.152 206.122" fill="#2242D2"/>
<path d="M282.278 208.063C282.06 207.703 281.987 207.344 282.788 206.842C283.517 206.411 283.881 206.626 284.099 206.985" fill="#2242D2"/>
<path d="M283.222 208.996C283.004 208.637 282.931 208.278 283.732 207.775C284.461 207.344 284.825 207.559 285.044 207.919" fill="#2242D2"/>
<path d="M284.314 204.327C284.095 203.968 284.022 203.609 284.824 203.107C285.552 202.675 285.916 202.891 286.134 203.25" fill="#2242D2"/>
<path d="M285.264 205.26C285.045 204.901 284.972 204.542 285.774 204.039C286.502 203.609 286.866 203.824 287.085 204.183" fill="#2242D2"/>
<path d="M286.211 206.123C285.992 205.764 285.92 205.404 286.721 204.902C287.449 204.471 287.813 204.686 288.032 205.045" fill="#2242D2"/>
<path d="M287.154 207.057C286.935 206.697 286.862 206.338 287.664 205.836C288.392 205.404 288.756 205.62 288.975 205.979" fill="#2242D2"/>
<path d="M288.323 202.388C288.104 202.029 288.032 201.67 288.833 201.167C289.561 200.736 289.925 200.952 290.144 201.311" fill="#2242D2"/>
<path d="M289.196 203.322C288.978 202.963 288.905 202.604 289.706 202.101C290.435 201.67 290.799 201.885 291.018 202.245" fill="#2242D2"/>
<path d="M290.144 204.184C289.925 203.825 289.852 203.466 290.654 202.963C291.382 202.532 291.746 202.747 291.965 203.107" fill="#2242D2"/>
<path d="M291.094 205.118C290.875 204.758 290.803 204.399 291.603 203.897C292.332 203.466 292.696 203.681 292.915 204.04" fill="#2242D2"/>
<path d="M235.295 235.28L186.125 242.821L185.907 241.241C185.616 239.517 186.854 237.865 188.603 237.578L231.362 231.042C233.11 230.755 234.785 231.976 235.077 233.7L235.295 235.28Z" fill="#2242D2"/>
<path d="M162.013 324.118L83.1959 312.842C81.1568 312.842 79.4812 311.335 79.4812 309.539V293.38C79.4812 288.64 83.7788 284.762 89.0967 284.762H159.537C169.953 284.762 178.33 292.302 178.33 301.567V309.539C178.257 311.335 164.053 324.118 162.013 324.118Z" fill="#C5C9F6"/>
<path d="M92.8863 166.837L107.382 299.342L73.3642 301.927L70.4507 197.001L59.4513 174.235L80.139 163.678L92.8863 166.837Z" fill="#C5C9F6"/>
<path d="M40.1455 141.271C40.1455 141.271 62.8727 128.2 72.9981 131.431C83.1234 134.663 87.4942 137.824 89.8251 147.734L92.8845 166.838L67.0977 175.528L42.695 146.37L40.1455 141.271Z" fill="#506AE3"/>
<path d="M68.0449 301.782C70.813 277.293 69.5746 252.659 64.5484 228.6C59.2308 203.248 49.6883 178.615 36.0665 155.777C32.6428 150.031 36.0665 142.634 42.7681 141.485C42.841 141.485 42.9138 141.485 42.9867 141.414C47.0659 140.695 51.0723 142.634 53.1119 146.153C67.0979 170.931 76.3489 198.006 80.501 225.871C84.0708 249.858 83.9246 274.563 79.9188 298.981C78.8261 305.732 67.3165 308.174 68.0449 301.782Z" fill="#C5C9F6"/>
<path d="M67.1002 175.527L50.3461 183.643C46.2669 174.09 41.532 164.754 36.1416 155.705C32.718 149.96 36.1416 142.562 42.8432 141.414C42.916 141.414 42.9889 141.414 43.0617 141.414C47.0681 140.695 51.1474 142.634 53.187 146.153C58.5047 155.633 63.1667 165.401 67.1002 175.527Z" fill="#506AE3"/>
<path d="M162.304 324.119H70.2296C68.3356 324.119 66.8788 322.611 66.8788 320.815V304.656C66.8788 299.916 70.8123 296.038 75.6197 296.038H148.609C158.006 296.038 165.655 303.579 165.655 312.843V320.815C165.728 322.611 164.198 324.119 162.304 324.119Z" fill="#C5C9F6"/>
<path opacity="0.4" d="M80.3824 296.037H148.611C158.007 296.037 165.656 303.578 165.656 312.843V320.814C165.729 322.61 164.199 324.118 162.305 324.118H70.2308C68.3368 324.118 66.88 322.61 66.88 320.814V304.655C66.88 302.971 67.3765 301.396 68.2325 300.064C70.753 276.141 69.4571 252.097 64.5484 228.6C59.2308 203.248 49.6883 178.615 36.0665 155.777C32.6428 150.031 36.0665 142.634 42.7681 141.485C42.841 141.485 42.9138 141.485 42.9867 141.414C47.0659 140.695 51.0723 142.634 53.1119 146.153C67.0979 170.931 76.3489 198.006 80.501 225.871C83.9274 248.894 83.9303 272.58 80.3824 296.037Z" fill="white"/>
<path d="M78.3804 394.715C78.2349 394.715 78.0893 394.572 78.0162 394.428C77.9438 394.213 78.0893 394.069 78.308 393.997C84.2081 392.92 88.9431 390.406 92.0756 386.744C93.4594 385.164 95.7172 382.004 95.4992 380.424C93.9692 381.716 92.2936 382.794 91.4927 382.219C91.2009 382.076 91.0554 381.716 90.9829 381.286C90.9098 380.639 91.0554 379.921 91.4196 379.49C91.8569 378.916 92.731 378.628 93.6781 378.628C94.479 378.628 95.2074 378.916 95.6448 379.275C96.2277 378.772 96.8099 378.198 97.3928 377.551C99.8693 374.966 106.425 368.143 104.168 360.817C103.366 358.16 101.545 355.791 99.4327 354.139C98.9229 354.57 98.4131 354.929 97.7571 355.216C95.2074 356.437 91.8569 356.293 90.1813 355.575C89.5984 355.287 89.3073 355 89.2342 354.641C89.1618 354.354 89.2342 353.995 89.4529 353.636C90.0358 352.702 91.6383 351.768 93.0221 351.481C94.9888 351.05 97.3204 351.84 99.3595 353.277C103.075 349.686 103.147 342.504 103.147 341.57C103.075 332.952 97.0286 326.848 94.4066 324.622C94.261 324.477 94.2603 324.263 94.3334 324.118C94.4066 323.975 94.6977 323.975 94.8432 324.047C97.5384 326.345 103.803 332.593 103.803 341.57C103.803 343.079 103.657 350.045 99.8693 353.707C102.055 355.431 103.949 357.945 104.75 360.674C107.081 368.43 100.307 375.397 97.7571 378.054C97.2473 378.628 96.5919 379.275 95.9359 379.85C96.8099 381.86 93.5325 385.882 92.5123 387.103C89.3805 390.981 84.4268 393.567 78.3804 394.715ZM93.5325 379.418C92.8041 379.418 92.2212 379.634 91.9294 379.993C91.7114 380.28 91.5651 380.783 91.6383 381.214C91.6383 381.429 91.7838 381.573 91.857 381.645C92.2936 381.932 93.5325 381.142 95.135 379.85C94.7708 379.562 94.261 379.418 93.6781 379.418C93.5325 379.418 93.5325 379.418 93.5325 379.418ZM94.1879 352.2C93.8236 352.2 93.5326 352.2 93.1683 352.271C91.7838 352.559 90.4724 353.42 90.0358 354.139C89.8902 354.282 89.8902 354.498 89.8902 354.57C89.8902 354.713 90.1082 354.857 90.4724 355.072C91.7838 355.718 94.9888 355.934 97.466 354.785C97.9757 354.57 98.4131 354.282 98.8497 353.923C97.3204 352.774 95.6448 352.2 94.1879 352.2Z" fill="#2242D2"/>
<path d="M152.586 394.715C152.513 394.715 152.513 394.715 152.586 394.715C146.467 393.567 141.587 390.981 138.381 387.246C137.288 386.026 134.083 382.004 134.957 379.993C134.302 379.347 133.647 378.7 133.136 378.198C130.587 375.54 123.813 368.503 126.143 360.818C126.945 358.089 128.839 355.575 131.024 353.852C127.309 350.117 127.091 343.222 127.091 341.714C127.163 332.809 133.355 326.489 136.05 324.19C136.196 324.047 136.414 324.047 136.56 324.263C136.706 324.478 136.706 324.622 136.487 324.765C133.865 326.992 127.819 333.096 127.746 341.714C127.746 342.648 127.819 349.829 131.534 353.42C133.574 351.984 135.905 351.266 137.871 351.625C139.328 351.913 140.858 352.846 141.44 353.779C141.659 354.139 141.732 354.498 141.659 354.785C141.587 355.144 141.222 355.504 140.712 355.718C139.037 356.509 135.613 356.581 133.136 355.359C132.554 355.072 131.971 354.713 131.461 354.282C129.348 355.934 127.527 358.304 126.726 360.961C124.541 368.287 131.024 375.11 133.5 377.695C134.083 378.341 134.666 378.916 135.249 379.418C135.686 378.988 136.414 378.772 137.216 378.772C138.163 378.772 139.037 379.059 139.474 379.634C139.838 380.137 139.983 380.783 139.911 381.429C139.838 381.861 139.619 382.148 139.401 382.363C138.527 382.938 136.924 381.861 135.395 380.568C135.103 382.076 137.435 385.236 138.818 386.887C141.951 390.478 146.685 392.992 152.586 394.141C152.805 394.213 152.877 394.356 152.877 394.572C152.877 394.644 152.732 394.715 152.586 394.715ZM135.905 379.85C137.507 381.214 138.745 381.932 139.183 381.645C139.256 381.573 139.328 381.429 139.401 381.214C139.474 380.783 139.328 380.28 139.109 379.993C138.818 379.634 138.163 379.347 137.435 379.418C136.779 379.418 136.196 379.563 135.905 379.85ZM132.117 353.852C132.554 354.211 132.991 354.498 133.5 354.713C135.978 355.863 139.109 355.647 140.494 355C140.858 354.857 141.076 354.641 141.076 354.498C141.076 354.426 141.076 354.211 140.931 354.067C140.494 353.42 139.183 352.487 137.799 352.2C135.978 351.913 133.938 352.559 132.117 353.852Z" fill="#2242D2"/>
<path d="M69.1375 311.623C69.0646 311.623 68.9189 311.623 68.8461 311.55C68.7004 311.407 68.7004 311.191 68.8461 311.048L78.5343 301.496C78.6799 301.352 78.8986 301.352 79.0441 301.496C79.1897 301.64 79.1897 301.855 79.0441 301.999L69.356 311.55C69.356 311.623 69.2103 311.623 69.1375 311.623Z" fill="#2242D2"/>
<path d="M137.465 326.201C137.392 326.201 137.247 326.201 137.174 326.129C137.028 325.985 137.028 325.77 137.174 325.626L146.862 316.075C147.008 315.931 147.226 315.931 147.372 316.075C147.518 316.218 147.518 316.434 147.372 316.577L137.683 326.057C137.611 326.129 137.538 326.201 137.465 326.201Z" fill="#2242D2"/>
<path d="M131.054 326.201C130.982 326.201 130.836 326.201 130.763 326.129C130.617 325.985 130.617 325.77 130.763 325.626L140.451 316.075C140.596 315.931 140.815 315.931 140.961 316.075C141.107 316.218 141.107 316.434 140.961 316.577L131.273 326.129C131.273 326.129 131.2 326.201 131.054 326.201Z" fill="#2242D2"/>
<path d="M118.379 326.201C118.306 326.201 118.16 326.201 118.088 326.129C117.941 325.985 117.941 325.77 118.088 325.626L127.776 316.075C127.921 315.931 128.14 315.931 128.285 316.075C128.431 316.218 128.431 316.434 128.285 316.577L118.597 326.129C118.524 326.129 118.452 326.201 118.379 326.201Z" fill="#2242D2"/>
<path d="M111.97 326.201C111.897 326.201 111.752 326.201 111.679 326.129C111.533 325.985 111.533 325.77 111.679 325.626L121.367 316.075C121.513 315.931 121.732 315.931 121.877 316.075C122.023 316.218 122.023 316.434 121.877 316.577L112.189 326.129C112.189 326.129 112.043 326.201 111.97 326.201Z" fill="#2242D2"/>
<path d="M105.631 326.201C105.558 326.201 105.412 326.201 105.339 326.129C105.193 325.985 105.193 325.77 105.339 325.626L115.028 316.075C115.173 315.931 115.392 315.931 115.537 316.075C115.683 316.218 115.683 316.434 115.537 316.577L105.849 326.129C105.776 326.129 105.703 326.201 105.631 326.201Z" fill="#2242D2"/>
<path d="M99.2941 326.201C99.2216 326.201 99.0761 326.201 99.003 326.129C98.8574 325.985 98.8574 325.77 99.003 325.626L108.691 316.075C108.837 315.931 109.055 315.931 109.201 316.075C109.347 316.218 109.347 316.434 109.201 316.577L99.5127 326.129C99.4403 326.129 99.3672 326.201 99.2941 326.201Z" fill="#2242D2"/>
<path d="M92.8834 326.201C92.811 326.201 92.6647 326.201 92.5923 326.129C92.4468 325.985 92.4468 325.77 92.5923 325.626L102.28 316.075C102.426 315.931 102.645 315.931 102.79 316.075C102.936 316.218 102.936 316.434 102.79 316.577L93.1021 326.129C93.1021 326.129 92.9565 326.201 92.8834 326.201Z" fill="#2242D2"/>
<path d="M86.5464 326.201C86.4733 326.201 86.3277 326.201 86.2553 326.129C86.1091 325.985 86.1091 325.77 86.2553 325.626L95.9433 316.075C96.0888 315.931 96.3075 315.931 96.4531 316.075C96.5986 316.218 96.5986 316.434 96.4531 316.577L86.7651 326.129C86.692 326.129 86.6196 326.201 86.5464 326.201Z" fill="#2242D2"/>
<path d="M80.136 326.201C80.0628 326.201 79.9173 326.201 79.8441 326.129C79.6986 325.985 79.6986 325.77 79.8441 325.626L89.5328 316.075C89.6784 315.931 89.897 315.931 90.0426 316.075C90.1881 316.218 90.1881 316.434 90.0426 316.577L80.3546 326.129C80.3546 326.129 80.2815 326.201 80.136 326.201Z" fill="#2242D2"/>
<path d="M73.7987 326.201C73.7256 326.201 73.58 326.201 73.5069 326.129C73.3613 325.985 73.3613 325.77 73.5069 325.626L83.1955 316.075C83.3411 315.931 83.5598 315.931 83.7053 316.075C83.8509 316.218 83.8509 316.434 83.7053 316.577L74.0174 326.129C74.0174 326.129 73.8711 326.201 73.7987 326.201Z" fill="#2242D2"/>
<path d="M70.1566 315.141C70.0837 315.141 69.9381 315.141 69.8653 315.069C69.7196 314.926 69.7196 314.711 69.8653 314.566L79.5535 305.015C79.6991 304.871 79.9178 304.871 80.0633 305.015C80.2089 305.158 80.2089 305.374 80.0633 305.518L70.3751 315.069C70.3023 315.141 70.2294 315.141 70.1566 315.141Z" fill="#2242D2"/>
<path d="M69.1375 320.959C69.0646 320.959 68.9189 320.959 68.8461 320.887C68.7004 320.744 68.7004 320.528 68.8461 320.385L78.5343 310.832C78.6799 310.689 78.8986 310.689 79.0441 310.832C79.1897 310.977 79.1897 311.191 79.0441 311.336L69.356 320.887C69.356 320.887 69.2103 320.959 69.1375 320.959Z" fill="#2242D2"/>
<path d="M70.1566 324.478C70.0837 324.478 69.9381 324.478 69.8653 324.406C69.7196 324.262 69.7196 324.047 69.8653 323.903L79.5535 314.352C79.6991 314.208 79.9178 314.208 80.0633 314.352C80.2089 314.495 80.2089 314.711 80.0633 314.854L70.3751 324.406C70.3023 324.406 70.2294 324.478 70.1566 324.478Z" fill="#2242D2"/>
<path d="M124.821 326.076C124.748 326.076 124.602 326.076 124.53 326.005C124.384 325.86 124.384 325.646 124.53 325.501L134.218 315.95C134.363 315.806 134.582 315.806 134.727 315.95C134.874 316.093 134.874 316.309 134.727 316.452L125.039 326.005C124.966 326.005 124.894 326.076 124.821 326.076Z" fill="#2242D2"/>
<path d="M47.3601 185.439C47.2144 185.439 47.0687 185.367 47.0687 185.224C46.9959 185.08 47.0687 184.864 47.2144 184.721L69.5774 173.948C69.7231 173.877 69.9417 173.948 70.0874 174.091C70.1602 174.236 70.0874 174.451 69.9417 174.595L47.5786 185.367C47.4329 185.367 47.4329 185.439 47.3601 185.439Z" fill="#2242D2"/>
<path d="M61.489 162.744C61.3434 162.744 61.1977 162.672 61.1249 162.529C58.5753 156.999 55.7344 151.54 52.7478 146.226C50.8539 142.85 46.9203 140.984 42.9867 141.702C42.9139 141.702 42.8411 141.702 42.7682 141.773C39.7088 142.276 37.2321 144.215 35.9209 146.944C34.6097 149.745 34.7554 152.833 36.3579 155.49C36.4308 155.634 36.4308 155.849 36.2122 155.993C36.0666 156.065 35.8481 156.065 35.7024 155.849C34.0269 152.977 33.8084 149.601 35.2653 146.657C36.6493 143.641 39.3446 141.63 42.6954 141.055C42.7682 141.055 42.8411 141.055 42.9139 141.055C47.1389 140.337 51.3638 142.348 53.4034 145.939C56.39 151.253 59.2309 156.711 61.7804 162.241C61.8533 162.457 61.7804 162.6 61.6347 162.744C61.6347 162.744 61.5619 162.744 61.489 162.744Z" fill="#2242D2"/>
<path d="M216.427 170.573C216.427 170.573 231.796 159.656 236.385 157.142C241.047 154.701 252.848 153.767 261.371 156.353C262.974 156.855 256.636 160.446 254.96 160.661C254.96 160.661 281.476 159.8 281.257 162.672C281.112 165.545 276.304 167.341 269.383 168.274C262.464 169.208 245.491 171.65 236.75 170.573C231.651 175.169 220.215 188.096 220.215 188.096L211.4 175.887L216.427 170.573Z" fill="#F8BCBF"/>
<path d="M167.547 225.8C167.547 225.8 187.434 216.463 194.062 218.259C196.831 218.977 201.274 219.911 205.28 222.568C210.817 226.231 211.618 231.187 209.214 232.407C207.32 233.341 197.996 230.755 197.996 230.755C197.996 230.755 193.99 232.694 190.712 235.28C188.235 237.219 175.56 238.224 175.56 238.224C162.521 225.728 167.547 225.8 167.547 225.8Z" fill="#F8BCBF"/>
<path d="M185.979 208.017C183.794 208.017 181.608 207.664 179.495 206.958L128.869 190.362C122.022 188.173 130.836 184.43 133.094 177.792C135.352 171.154 122.24 158.088 129.087 160.278L184.74 181.958L216.792 164.444C222.619 160.348 238.062 180.758 232.235 184.853L197.561 204.204C194.21 206.746 190.131 208.017 185.979 208.017Z" fill="#2242D2"/>
<path d="M156.771 102.775C157.863 102.129 165.439 95.809 164.565 93.5109C163.982 91.931 160.486 92.5057 159.903 90.7102C159.466 89.4173 161.069 88.053 162.088 86.5445C165.221 82.236 163.327 71.9656 159.101 70.7448C143.368 66.2203 131.713 85.4672 131.713 85.4672C133.169 82.6665 133.169 79.8658 131.713 78.5015C129.819 76.706 125.958 78.2859 125.448 78.5015C118.601 81.3022 117.29 90.4232 114.959 90.0641C113.502 89.7764 113.938 86.3296 111.754 85.4672C109.786 84.6776 106.436 86.2575 105.489 88.6277C104.032 92.2901 108.985 96.1681 107.674 98.1792C107.019 99.1844 104.833 99.6877 98.787 97.9636C95.6552 110.819 101.482 122.956 103.158 127.481C104.542 131.431 106.509 136.817 110.807 137.607C113.938 138.182 118.09 136.242 119.256 133.226C120.932 128.989 115.614 125.614 116.051 118.504C116.197 115.415 117.799 115.2 118.673 113.764C128.653 112.974 149.851 107.085 156.771 102.775Z" fill="#2242D2"/>
<path d="M110.732 163.246C110.732 163.246 118.526 138.182 118.817 129.061C118.817 129.061 108.255 132.293 109.202 125.829C110.149 119.294 118.817 120.874 118.817 120.874C118.453 117.713 119.181 114.626 121.003 111.609C121.003 111.609 136.373 110.963 154.365 103.925L158.08 130.21L153.709 131.071C153.709 131.071 150.213 148.811 148.319 149.457C146.425 150.104 135.061 150.319 135.061 150.319L134.114 177.61C134.042 177.61 114.082 173.875 110.732 163.246Z" fill="#F8BCBF"/>
<path d="M112.846 152.977C108.33 158.65 63.2395 189.317 89.9733 264.079H148.904C148.904 264.079 152.91 210.79 151.162 201.669C150.069 195.78 149.997 171.793 149.778 170.357C149.486 168.418 136.302 163.175 134.554 165.186L134.189 171.936C122.097 167.268 113.501 152.259 112.846 152.977Z" fill="#2242D2"/>
<path d="M125.012 259.053C124.721 259.053 124.429 259.053 124.138 259.053C120.569 258.909 114.013 257.257 110.735 247.777C110.08 245.767 109.351 243.109 108.623 239.734C107.53 234.635 106.219 227.597 104.835 218.835C102.504 204.184 100.683 189.821 100.61 189.246C99.7356 182.207 104.762 175.744 111.901 174.882C119.039 174.02 125.595 178.976 126.469 186.014C128.363 200.952 131.568 222.426 133.608 233.414C142.568 229.392 156.481 225.37 167.699 219.84C174.182 216.68 185.764 239.733 179.281 242.894C136.449 263.937 128.509 259.053 125.012 259.053Z" fill="#2242D2"/>
<path d="M125.012 259.053C124.721 259.053 124.429 259.053 124.138 259.053C120.569 258.909 114.013 257.257 110.735 247.777C110.08 245.767 109.351 243.109 108.623 239.734C107.53 234.635 106.219 227.597 104.835 218.835C102.504 204.184 100.683 189.821 100.61 189.246C99.7356 182.207 104.762 175.744 111.901 174.882C119.039 174.02 125.595 178.976 126.469 186.014C128.363 200.952 131.568 222.426 133.608 233.414C142.568 229.392 156.481 225.37 167.699 219.84C174.182 216.68 185.764 239.733 179.281 242.894C136.449 263.937 128.509 259.053 125.012 259.053Z" fill="black" fill-opacity="0.28"/>
<path d="M133.606 239.159C133.387 239.159 133.241 238.943 133.241 238.727C133.97 233.126 126.321 186.372 123.626 179.837C122.388 176.821 116.56 176.605 111.898 176.892C106.726 177.251 101.846 178.401 101.773 178.401C101.554 178.472 101.408 178.329 101.335 178.113C101.263 177.898 101.408 177.754 101.627 177.682C102.428 177.467 121.659 173.086 124.354 179.549C126.831 185.582 134.844 232.264 133.97 238.799C133.97 239.086 133.751 239.159 133.606 239.159Z" fill="#060606"/>
<path d="M129.09 236.716C128.945 236.716 128.872 236.644 128.799 236.573C128.726 236.429 128.726 236.214 128.945 236.07C129.018 235.998 140.017 229.534 162.308 221.419C162.526 221.347 162.672 221.419 162.744 221.635C162.817 221.85 162.744 221.994 162.526 222.065C140.308 230.181 129.455 236.644 129.309 236.716C129.237 236.644 129.163 236.716 129.09 236.716Z" fill="#060606"/>
<path d="M123.845 260.848C116.633 260.848 110.442 250.003 105.489 228.674C101.773 212.658 100.098 196.355 100.098 196.14C100.098 195.925 100.244 195.781 100.389 195.781C100.608 195.781 100.754 195.925 100.754 196.068C100.826 196.714 107.31 260.848 123.99 260.129C144.46 259.196 175.71 241.816 176.074 241.6C176.219 241.529 176.438 241.529 176.584 241.745C176.729 241.96 176.657 242.103 176.438 242.247C176.147 242.391 144.678 259.915 124.064 260.848C124.064 260.848 123.918 260.848 123.845 260.848Z" fill="#060606"/>
<path d="M144.605 207.846L143.877 206.266C143.367 205.189 142.565 203.466 141.837 203.393C141.473 203.393 141.109 203.825 140.672 204.614L140.235 205.548L140.016 204.543C139.652 202.891 139.725 201.239 139.725 199.659C139.725 199.228 139.725 198.797 139.725 198.366C139.725 198.15 139.87 198.007 140.089 198.007C140.308 198.007 140.453 198.15 140.453 198.366C140.453 198.797 140.453 199.228 140.453 199.659C140.453 200.952 140.453 202.244 140.599 203.466C141.036 202.962 141.4 202.675 141.91 202.747C142.857 202.747 143.586 203.896 144.168 205.045C144.314 204.327 144.605 203.825 144.97 203.537C145.625 203.034 146.499 203.321 147.3 203.537C148.393 203.896 149.048 204.04 149.486 203.25C149.559 203.106 149.777 203.034 149.996 203.106C150.141 203.178 150.214 203.393 150.141 203.609C149.413 204.973 148.102 204.543 147.082 204.255C146.426 204.04 145.771 203.825 145.334 204.112C144.97 204.399 144.751 205.117 144.678 206.338L144.605 207.846Z" fill="#C5C9F6"/>
<path d="M97.4742 236.788C97.3286 236.788 97.11 236.645 97.11 236.501C96.8913 235.208 96.0173 233.843 95.2157 232.623C94.8515 232.049 94.4879 231.545 94.1961 231.043C94.1237 230.899 94.1961 230.684 94.3417 230.54C94.4879 230.468 94.7059 230.54 94.8515 230.684C95.1433 231.186 95.4344 231.69 95.7986 232.192C96.6726 233.484 97.6197 234.921 97.8384 236.357C97.9116 236.573 97.7653 236.788 97.4742 236.788C97.5473 236.788 97.5473 236.788 97.4742 236.788Z" fill="#506AE3"/>
<path d="M101.993 234.562C101.847 234.562 101.628 234.419 101.628 234.275C101.41 232.336 100.317 230.397 98.5689 228.673C98.4233 228.53 98.4233 228.314 98.5689 228.171C98.7144 228.026 98.9331 228.026 99.0787 228.171C100.9 229.966 102.065 232.12 102.357 234.203C102.429 234.347 102.284 234.562 101.993 234.562C102.065 234.562 102.065 234.562 101.993 234.562Z" fill="#506AE3"/>
<path d="M147.522 137.752C147.522 137.752 145.701 143.425 141.913 143.138C139.218 142.923 138.562 138.398 138.417 138.254L147.522 137.752Z" fill="white"/>
<path d="M140.018 125.326C140.823 125.326 141.475 124.684 141.475 123.891C141.475 123.097 140.823 122.454 140.018 122.454C139.213 122.454 138.561 123.097 138.561 123.891C138.561 124.684 139.213 125.326 140.018 125.326Z" fill="#464646"/>
<path d="M155.316 121.448C156.12 121.448 156.773 120.806 156.773 120.012C156.773 119.219 156.12 118.576 155.316 118.576C154.512 118.576 153.859 119.219 153.859 120.012C153.859 120.806 154.512 121.448 155.316 121.448Z" fill="#464646"/>
<path d="M134.626 122.167C134.407 122.167 134.188 122.096 134.043 121.88C133.752 121.592 133.824 121.09 134.116 120.874L141.618 114.626C141.909 114.339 142.42 114.411 142.638 114.698C142.93 114.985 142.857 115.488 142.566 115.703L135.062 121.951C134.99 122.096 134.844 122.167 134.626 122.167Z" fill="#464646"/>
<path d="M160.85 118.577C160.778 118.577 160.704 118.577 160.631 118.577L152.546 116.279C152.182 116.134 151.963 115.775 152.036 115.416C152.182 115.057 152.546 114.842 152.91 114.914L160.996 117.212C161.36 117.356 161.578 117.715 161.505 118.073C161.433 118.361 161.142 118.577 160.85 118.577Z" fill="#464646"/>
<path d="M133.242 119.007C132.878 119.007 132.514 118.72 132.514 118.361C132.514 117.93 132.805 117.643 133.17 117.571L141.401 117.068C141.765 117.068 142.129 117.356 142.202 117.715C142.202 118.145 141.911 118.433 141.546 118.504L133.242 119.007C133.315 119.007 133.315 119.007 133.242 119.007Z" fill="#464646"/>
<path d="M148.759 132.724C148.614 132.724 148.468 132.581 148.395 132.437C148.322 132.222 148.468 132.078 148.686 132.006L156.773 130.354C156.991 130.282 157.137 130.426 157.209 130.641C157.282 130.857 157.137 131 156.918 131.072L148.832 132.724C148.759 132.724 148.759 132.724 148.759 132.724Z" fill="#464646"/>
<path d="M114.305 126.619C114.232 126.619 114.159 126.619 114.086 126.547C113.941 126.404 113.868 126.188 114.014 126.045C114.086 125.973 115.179 124.537 117.728 125.039C117.947 125.111 118.02 125.255 118.02 125.47C117.947 125.686 117.802 125.758 117.583 125.758C115.543 125.326 114.669 126.404 114.669 126.476C114.524 126.619 114.378 126.619 114.305 126.619Z" fill="#464646"/>
<path d="M116.854 127.841C116.635 127.841 116.49 127.625 116.49 127.41C116.562 126.62 115.033 125.184 114.012 124.466C113.867 124.321 113.794 124.106 113.94 123.962C114.085 123.819 114.304 123.747 114.45 123.891C114.741 124.106 117.364 126.045 117.218 127.482C117.218 127.697 117.072 127.841 116.854 127.841Z" fill="#464646"/>
<path d="M126.758 108.952L123.918 123.603C123.918 123.603 117.216 120.946 114.302 120.731C109.567 117.571 118.673 106.798 118.673 106.798L126.758 108.952Z" fill="#2242D2"/>
<path d="M149.048 95.8826L148.393 95.5949C148.903 94.5176 149.995 93.9429 150.943 93.4403C151.234 93.2968 151.598 93.0812 151.889 92.9377C155.75 90.424 160.776 86.9051 165.001 82.4524C168.061 79.2926 170.683 75.9172 169.736 70.1716C169.59 69.3815 169.226 68.9506 168.497 68.7351C165.147 67.8015 156.552 72.9009 154.147 75.6295L153.565 75.199C156.114 72.2541 164.856 67.0115 168.644 68.0888C169.663 68.3761 170.246 69.0942 170.465 70.0995C171.484 76.1321 168.716 79.6517 165.584 82.955C161.286 87.4798 156.26 90.9987 152.326 93.5838C152.035 93.7994 151.671 93.9429 151.379 94.1585C150.432 94.5176 149.486 95.0202 149.048 95.8826Z" fill="#506AE3"/>
<path d="M208.342 224.435C208.342 224.435 208.27 224.435 208.342 224.435C207.614 224.22 206.521 223.861 205.21 223.43C202.442 222.425 198.581 221.06 196.76 221.06C196.615 221.06 196.469 220.916 196.469 220.773C196.469 220.629 196.615 220.485 196.76 220.485C198.727 220.485 202.442 221.778 205.428 222.855C206.667 223.286 207.759 223.717 208.415 223.861C208.561 223.932 208.633 224.076 208.633 224.22C208.561 224.364 208.488 224.435 208.342 224.435Z" fill="#2242D2"/>
<path d="M211.548 229.247C211.474 229.247 211.474 229.247 211.548 229.247C210.819 229.032 209.872 228.673 208.779 228.242C206.23 227.237 202.66 225.8 199.965 225.8C199.82 225.8 199.673 225.657 199.673 225.513C199.673 225.369 199.82 225.226 199.965 225.226C202.806 225.226 206.375 226.662 208.998 227.667C210.091 228.098 210.965 228.457 211.62 228.601C211.766 228.673 211.839 228.817 211.839 228.96C211.766 229.176 211.62 229.247 211.548 229.247Z" fill="#2242D2"/>
<path d="M153.637 265.515C153.637 265.515 217.594 261.494 221.018 269.25C224.441 277.006 224.462 353.362 224.462 353.362L205.944 358.518L198.436 281.818L153.637 265.515Z" fill="#506AE3"/>
<path d="M153.637 265.515C153.637 265.515 217.594 261.494 221.018 269.25C224.441 277.006 224.462 353.362 224.462 353.362L205.944 358.518L198.436 281.818L153.637 265.515Z" fill="white" fill-opacity="0.43"/>
<path d="M224.441 352.773C224.441 352.773 224.441 355.79 224.441 357.011C224.441 359.812 224.441 361.392 224.441 361.392L205.575 359.574L205.211 352.558L224.441 352.773Z" fill="#F9C5C8"/>
<path d="M224.442 358.447V370.082L245.057 378.915C246.805 379.633 246.222 382.147 244.401 382.147L206.959 381.932L205.576 358.591L224.442 358.447Z" fill="#F2F1F8"/>
<path d="M253.069 390.693H193.92C192.682 390.693 191.735 389.76 191.735 388.539C191.735 387.318 192.682 386.385 193.92 386.385H253.069C254.308 386.385 255.255 387.318 255.255 388.539C255.255 389.76 254.234 390.693 253.069 390.693Z" fill="#2242D2"/>
<path d="M216.428 387.103L229.321 371.231C229.321 371.231 247.314 377.982 252.776 382.148C255.545 384.302 253.869 388.683 250.373 388.539L216.428 387.103Z" fill="#2242D2"/>
<path fill-rule="evenodd" clip-rule="evenodd" d="M253.798 386.5C254.66 386.785 255.255 387.572 255.255 388.539C255.255 389.76 254.234 390.693 253.069 390.693H193.92C192.682 390.693 191.735 389.76 191.735 388.539C191.735 387.318 192.682 386.385 193.92 386.385H217.011L229.321 371.231C229.321 371.231 247.313 377.982 252.777 382.148C254.264 383.305 254.468 385.104 253.798 386.5Z" fill="white" fill-opacity="0.19"/>
<path d="M89.9731 264.078V278.944C89.9731 287.563 97.1122 294.601 105.854 294.601H173.816C177.459 294.601 180.372 297.473 180.372 301.064V386.671C180.372 389.041 182.267 390.909 184.67 390.909H232.893C234.714 390.909 241.634 388.61 240.177 387.533L206.159 369.866L204.556 285.624C204.411 276.287 197.126 268.602 187.729 267.741L148.904 264.15H89.9731V264.078Z" fill="#506AE3"/>
<path d="M206.16 358.447H180.373V362.613H206.16V358.447Z" fill="#F8B8BB"/>
<path d="M180.373 362.613V386.672C180.373 389.042 182.267 390.909 184.671 390.909H232.893C234.714 390.909 241.635 388.611 240.178 387.534L206.16 369.866V362.613H180.373Z" fill="white"/>
<path d="M206.158 358.806H180.371C180.153 358.806 180.007 358.662 180.007 358.447C180.007 358.232 180.153 358.088 180.371 358.088H206.158C206.377 358.088 206.523 358.232 206.523 358.447C206.523 358.662 206.377 358.806 206.158 358.806Z" fill="#2242D2"/>
<path d="M206.158 363.331H180.371C180.153 363.331 180.007 363.187 180.007 362.972C180.007 362.757 180.153 362.613 180.371 362.613H206.158C206.377 362.613 206.523 362.757 206.523 362.972C206.523 363.187 206.377 363.331 206.158 363.331Z" fill="#2242D2"/>
<path d="M224.515 352.989H206.159C205.94 352.989 205.794 352.846 205.794 352.63C205.794 352.414 205.94 352.271 206.159 352.271H224.442C224.661 352.271 224.806 352.414 224.806 352.63C224.806 352.846 224.661 352.989 224.515 352.989Z" fill="#2242D2"/>
<path d="M224.515 358.806H206.159C205.94 358.806 205.794 358.662 205.794 358.447C205.794 358.232 205.94 358.088 206.159 358.088H224.442C224.661 358.088 224.806 358.232 224.806 358.447C224.806 358.662 224.661 358.806 224.515 358.806Z" fill="#2242D2"/>
<path d="M240.396 394.571H181.247C180.009 394.571 179.062 393.638 179.062 392.416C179.062 391.195 180.009 390.262 181.247 390.262H240.396C241.635 390.262 242.582 391.195 242.582 392.416C242.582 393.638 241.562 394.571 240.396 394.571Z" fill="#2242D2"/>
<path d="M203.828 390.98L216.721 375.108C216.721 375.108 234.714 381.859 240.177 386.025C242.945 388.179 241.269 392.56 237.773 392.417L203.828 390.98Z" fill="#2242D2"/>
<path d="M117.58 282.248C117.143 282.248 116.706 282.176 116.269 282.104C113.136 281.458 113.283 277.652 113.355 274.851C113.355 274.42 113.355 273.989 113.355 273.63C113.355 273.414 113.501 273.271 113.719 273.271C113.938 273.271 114.083 273.414 114.083 273.63C114.083 273.989 114.083 274.42 114.083 274.851C114.011 277.508 113.938 280.883 116.414 281.386C117.944 281.745 119.474 281.386 120.931 280.381C124.719 277.867 126.904 272.194 127.049 271.188C127.049 270.973 127.268 270.829 127.487 270.901C127.705 270.901 127.851 271.116 127.778 271.332C127.487 272.84 125.083 278.514 121.368 281.027C120.13 281.889 118.892 282.248 117.58 282.248Z" fill="#2242D2"/>
<path d="M191.516 344.372C191.297 344.372 191.152 344.228 191.152 344.012V293.524C191.152 287.994 186.636 283.542 181.027 283.542L126.03 281.962C125.811 281.962 125.666 281.818 125.666 281.603C125.666 281.388 125.884 281.243 126.03 281.243L181.027 282.823C187 282.823 191.88 287.635 191.88 293.524V344.012C191.88 344.156 191.735 344.372 191.516 344.372Z" fill="#2242D2"/>
<path d="M186.271 375.325C186.126 375.325 185.98 375.252 185.907 375.109C185.835 374.893 185.907 374.75 186.126 374.678C186.709 374.463 187.875 374.104 188.821 374.391C189.04 374.463 189.113 374.679 189.04 374.822C188.967 375.038 188.749 375.109 188.603 375.038C188.093 374.893 187.292 374.965 186.418 375.325C186.345 375.325 186.271 375.325 186.271 375.325Z" fill="#2242D2"/>
<path d="M187.218 377.982C187.073 377.982 186.927 377.91 186.854 377.766C186.782 377.623 186.854 377.407 187 377.264L187.218 377.191C187.801 376.904 188.239 376.689 188.967 376.761C189.185 376.761 189.331 376.904 189.331 377.12C189.331 377.336 189.113 377.479 188.967 377.479C188.384 377.479 188.02 377.623 187.51 377.838L187.292 377.91C187.364 377.982 187.292 377.982 187.218 377.982Z" fill="#2242D2"/>
<path d="M202.514 371.087C202.368 371.087 202.222 371.015 202.15 370.871C202.077 370.656 202.15 370.512 202.368 370.369C202.514 370.297 202.66 370.225 202.805 370.153C203.096 370.01 203.388 369.866 203.825 369.723C204.117 369.651 204.408 369.651 204.699 369.651C205.136 369.651 205.5 369.651 205.791 369.435C205.938 369.291 206.156 369.364 206.302 369.507C206.447 369.651 206.374 369.866 206.229 370.01C205.719 370.369 205.136 370.369 204.699 370.369C204.481 370.369 204.189 370.369 203.971 370.441C203.679 370.512 203.461 370.656 203.169 370.8C203.024 370.871 202.878 370.943 202.66 371.015C202.587 371.087 202.514 371.087 202.514 371.087Z" fill="#2242D2"/>
<path d="M217.96 369.148C217.814 369.148 217.669 369.076 217.669 368.932C217.596 368.789 217.669 368.573 217.814 368.43C217.96 368.358 218.106 368.286 218.251 368.143C218.616 367.855 219.052 367.568 219.563 367.64C219.781 367.711 219.854 367.855 219.854 368.07C219.781 368.286 219.635 368.358 219.417 368.358C219.271 368.286 218.98 368.502 218.689 368.717C218.543 368.861 218.325 369.004 218.178 369.076C218.106 369.148 218.033 369.148 217.96 369.148Z" fill="#2242D2"/>
<path d="M218.393 370.728C218.321 370.728 218.248 370.728 218.175 370.656C218.029 370.513 217.956 370.297 218.102 370.154C218.393 369.723 219.049 369.22 219.559 369.004C219.778 368.933 219.923 369.076 219.996 369.22C220.069 369.435 219.923 369.579 219.778 369.651C219.413 369.795 218.904 370.226 218.685 370.513C218.685 370.656 218.539 370.728 218.393 370.728Z" fill="#2242D2"/>
<path d="M150.65 197.576C150.65 197.576 150.067 185.367 147.663 181.991C147.663 181.991 159.682 198.51 159.682 200.449L150.65 197.576Z" fill="black" fill-opacity="0.81"/>
<path d="M246.877 193.338C246.586 193.338 246.294 193.266 246.003 193.194C244.401 192.692 243.38 190.609 243.454 188.957C243.454 186.946 244.983 185.51 245.711 184.864C247.897 182.852 251.248 181.416 254.744 181.129C255.036 177.108 255.036 170.859 255.108 163.964C255.181 151.11 255.254 136.602 256.857 129.923L257.585 130.067C255.983 136.602 255.91 151.11 255.837 163.964C255.764 170.787 255.764 176.963 255.472 181.057C257.585 180.986 259.698 181.416 261.664 182.422C261.883 182.565 262.174 182.709 262.393 182.852C263.559 180.77 265.161 179.334 265.89 178.615C273.028 172.008 285.193 172.942 288.762 173.373L288.69 174.091C285.193 173.66 273.32 172.798 266.472 179.118C265.743 179.765 264.214 181.201 263.121 183.211C265.38 184.72 267.273 187.018 267.856 188.886C268.075 189.675 268.075 190.321 267.783 190.753C267.492 191.255 266.836 191.686 265.962 191.902C264.724 192.117 263.412 191.902 262.611 191.255C261.155 190.178 261.228 188.239 261.228 187.305C261.228 185.869 261.591 184.648 262.174 183.499C261.955 183.356 261.664 183.212 261.446 183.068C259.624 182.134 257.585 181.704 255.546 181.775C255.4 183.427 255.254 184.648 254.963 185.366C253.506 189.316 249.791 193.338 246.877 193.338ZM254.672 181.847C251.393 182.063 248.261 183.427 246.222 185.366C245.493 186.013 244.182 187.234 244.182 188.957C244.182 190.321 244.983 192.117 246.222 192.476C248.553 193.194 252.705 189.388 254.162 185.151C254.38 184.577 254.598 183.427 254.672 181.847ZM262.684 184.002C262.174 185.007 261.883 186.156 261.883 187.449C261.883 188.239 261.883 189.962 262.976 190.825C263.631 191.327 264.724 191.543 265.743 191.327C266.399 191.184 266.836 190.896 267.055 190.537C267.2 190.25 267.2 189.747 267.055 189.173C266.618 187.736 264.942 185.51 262.684 184.002Z" fill="#2242D2"/>
<path d="M258.094 140.768C252.193 140.768 247.459 136.028 247.459 130.282C247.459 124.537 252.266 119.797 258.094 119.797C263.921 119.797 268.729 124.537 268.729 130.282C268.729 136.028 263.921 140.768 258.094 140.768ZM258.094 120.443C252.63 120.443 248.187 124.824 248.187 130.21C248.187 135.597 252.63 139.977 258.094 139.977C263.557 139.977 268 135.597 268 130.21C268 124.824 263.557 120.443 258.094 120.443Z" fill="#2242D2"/>
<path d="M257.148 131.288C258.034 131.288 258.752 130.581 258.752 129.708C258.752 128.836 258.034 128.128 257.148 128.128C256.264 128.128 255.546 128.836 255.546 129.708C255.546 130.581 256.264 131.288 257.148 131.288Z" fill="#2242D2"/>
<path d="M383.175 89.0715C383.741 85.7871 382.366 82.8177 380.105 82.439C377.845 82.0603 375.553 84.4165 374.988 87.7016C374.422 90.986 375.796 93.9554 378.057 94.3341C380.318 94.7128 382.609 92.3566 383.175 89.0715Z" fill="#C5C9F6"/>
<path d="M345.29 107.301C345.072 107.301 344.998 107.229 344.998 107.158C343.979 106.008 354.177 86.833 354.25 86.6174C355.342 85.2531 356.872 84.2472 358.547 83.8167L381.348 77.8555C383.751 77.2094 386.301 77.712 388.267 79.2205C390.235 80.7283 391.4 82.955 391.4 85.4687V90.8545C391.4 95.1637 387.976 98.6112 383.605 98.6826L360.951 99.2573C348.932 106.224 346.018 107.301 345.29 107.301ZM383.314 78.3588C382.731 78.3588 382.076 78.4302 381.42 78.5737L358.62 84.5349C357.09 84.9654 355.707 85.8278 354.759 87.0486C353.667 88.4129 346.018 104.141 345.508 106.583C347.038 106.224 354.177 102.346 360.441 98.6112L360.514 98.5391H360.587L383.387 97.9644C387.321 97.893 390.453 94.7332 390.453 90.8545V85.4687C390.453 83.242 389.433 81.1595 387.612 79.7945C386.447 78.8614 384.917 78.3588 383.314 78.3588Z" fill="#2242D2"/>
<path d="M370.199 87.6233L360.948 88.9883C360.438 89.0597 360.002 88.7006 360.002 88.198C360.002 87.7675 360.293 87.4798 360.73 87.4084L369.981 86.0434C370.491 85.972 370.928 86.3311 370.928 86.8337C370.855 87.1928 370.564 87.5519 370.199 87.6233Z" fill="#2242D2"/>
<path d="M370.199 92.3628L360.948 93.7271C360.438 93.7992 360.002 93.4401 360.002 92.9375C360.002 92.5063 360.293 92.2193 360.73 92.1472L369.981 90.7829C370.491 90.7108 370.928 91.0699 370.928 91.5725C370.855 91.9316 370.564 92.2907 370.199 92.3628Z" fill="#2242D2"/>
</g>
<defs>
<clipPath id="clip0">
<rect width="568" height="420" fill="white"/>
</clipPath>
</defs>
</svg>
