<svg width="712" height="743" viewBox="0 0 712 743" fill="none" xmlns="http://www.w3.org/2000/svg">
<path d="M712 113.487C694.909 96.5954 674.836 82.4694 651.41 72.5971C612.576 56.2315 570.736 66.8475 528.041 77.6804C494.501 86.1903 460.433 94.8341 426.881 90.6366C386.942 85.64 348.19 64.4293 310.469 43.7832C254.894 13.3647 201.558 -15.8285 149.963 9.86307C98.7322 35.3731 103.788 90.4687 109.043 147.747C112.315 183.4 115.664 219.899 105.564 250.635C95.6267 280.874 74.6445 308.331 53.9845 335.366C23.0883 375.796 -7.0871 415.283 1.47552 461.723C14.8238 534.119 89.0823 582.558 157.848 627.414C164.434 631.709 170.969 635.972 177.395 640.22C252.489 689.857 332.599 740.976 426.881 742.918C522.234 744.883 620.227 711.511 685.101 650.68C696.158 640.313 704.931 628.983 712 616.928V113.487Z" fill="#22D2B2"/>
</svg>
