<svg width="610" height="422" viewBox="0 0 610 422" fill="none" xmlns="http://www.w3.org/2000/svg">
<g clip-path="url(#clip0)">
<path d="M55.1309 184.307C43.8378 193.55 62.3174 274.685 62.3174 274.685C62.3174 274.685 66.424 398.441 75.1505 404.089C83.8771 409.738 103.383 403.576 111.083 402.549C118.783 401.522 112.11 325.009 100.817 296.766C89.5236 268.522 98.2502 227.442 98.2502 227.442L159.336 239.252C159.336 239.252 122.376 270.576 123.916 277.252C125.456 283.928 164.982 306.522 172.169 307.549C179.355 308.576 193.215 266.468 205.535 237.712C217.855 208.955 121.35 190.469 121.35 190.469L108.003 165.307C108.003 165.307 66.4241 175.063 55.1309 184.307Z" fill="#2F2E41"/>
<path d="M85.7893 406.22C85.7893 406.22 82.0644 419.262 85.7893 419.262C89.5143 419.262 96.3434 422.989 106.897 421.746C117.452 420.504 114.347 407.462 106.897 405.599C99.4476 403.736 101.31 388.831 101.31 388.831C98.8267 383.862 87.031 390.073 87.031 390.073L85.7893 406.22Z" fill="#2F2E41"/>
<path d="M138.673 302.508C138.673 302.508 132.283 314.471 135.924 315.257C139.565 316.043 145.455 321.126 156.034 322.138C166.612 323.151 166.327 309.747 159.438 306.354C152.548 302.961 157.511 288.784 157.511 288.784C156.131 283.404 143.291 286.986 143.291 286.986L138.673 302.508Z" fill="#2F2E41"/>
<path d="M62.0608 73.1317C63.0874 75.1858 58.4675 100.861 58.4675 100.861L62.5741 108.05C62.5741 108.05 86.1871 98.8073 82.5938 97.2667C79.0005 95.7262 79.5139 76.7263 79.5139 76.7263C79.5139 76.7263 61.0342 71.0777 62.0608 73.1317Z" fill="#FFB9B9"/>
<path d="M70.9482 81.0461C88.3308 81.0461 102.422 66.9497 102.422 49.5608C102.422 32.172 88.3308 18.0756 70.9482 18.0756C53.5657 18.0756 39.4744 32.172 39.4744 49.5608C39.4744 66.9497 53.5657 81.0461 70.9482 81.0461Z" fill="#2F2E41"/>
<path d="M68.7776 33.1138C75.9704 33.1138 81.8013 27.2808 81.8013 20.0854C81.8013 12.89 75.9704 7.05701 68.7776 7.05701C61.5848 7.05701 55.7539 12.89 55.7539 20.0854C55.7539 27.2808 61.5848 33.1138 68.7776 33.1138Z" fill="#2F2E41"/>
<path d="M74.4756 25.9864C74.9263 26.0332 75.3791 26.0567 75.8322 26.0568C77.5425 26.0568 79.2361 25.7198 80.8162 25.0651C82.3963 24.4103 83.832 23.4507 85.0414 22.2409C86.2507 21.0311 87.2101 19.5948 87.8646 18.0142C88.5191 16.4335 88.8559 14.7393 88.8559 13.0284C88.8559 11.3175 88.5191 9.62333 87.8646 8.04265C87.2101 6.46197 86.2507 5.02573 85.0414 3.81593C83.832 2.60613 82.3963 1.64647 80.8162 0.991728C79.2361 0.336989 77.5425 -5.09892e-08 75.8322 0C75.3791 0.000116577 74.9263 0.0236269 74.4756 0.0704392C77.6773 0.406016 80.6414 1.91591 82.7959 4.30879C84.9503 6.70168 86.1426 9.80798 86.1426 13.0284C86.1426 16.2488 84.9503 19.3551 82.7959 21.748C80.6414 24.1409 77.6773 25.6508 74.4756 25.9864Z" fill="#2F2E41"/>
<path d="M71.8138 86.483C83.7208 86.483 93.3734 76.827 93.3734 64.9156C93.3734 53.0042 83.7208 43.3481 71.8138 43.3481C59.9067 43.3481 50.2542 53.0042 50.2542 64.9156C50.2542 76.827 59.9067 86.483 71.8138 86.483Z" fill="#FFB9B9"/>
<path d="M40.7576 98.0369C34.0844 99.5774 22.7913 116.01 22.7913 116.01L40.7576 133.983C40.7576 133.983 53.5908 182.253 55.1307 184.307C65.2196 197.763 110.57 167.874 110.57 167.874C110.57 167.874 108.773 153.239 109.8 146.05C110.787 139.136 105.95 125.253 105.95 125.253C105.95 125.253 122.89 118.064 119.296 110.875C115.703 103.686 93.6301 87.2533 84.3903 92.9019C75.1505 98.5505 56.6708 92.9019 56.6708 92.9019C56.6708 92.9019 47.4309 96.4964 40.7576 98.0369Z" fill="#A8DADC"/>
<path d="M171.912 201.509C171.912 201.509 201.172 226.671 208.358 221.536C215.545 216.401 180.639 198.428 180.639 198.428L171.912 201.509Z" fill="#FFB9B9"/>
<path d="M40.5011 192.78C44.6077 197.401 64.1141 185.591 61.6133 180.345C59.1125 175.1 43.581 185.591 43.581 185.591C43.581 185.591 36.3945 188.158 40.5011 192.78Z" fill="#FFB9B9"/>
<path d="M40.7577 123.199L19.1981 163.253C19.1981 163.253 43.8376 183.793 46.9176 184.307C49.9975 184.82 40.7577 198.172 40.7577 198.172C40.7577 198.172 13.0382 178.658 2.25834 168.901C-8.52148 159.145 22.7913 116.01 22.7913 116.01L32.0312 110.361L40.7577 123.199Z" fill="#A8DADC"/>
<path d="M103.383 121.658L128.536 160.685C128.536 160.685 167.036 203.82 172.169 205.874C177.302 207.928 183.462 198.171 183.462 198.171L137.263 142.199L119.81 110.875L113.137 108.307L103.383 121.658Z" fill="#A8DADC"/>
<path d="M70.9483 52.319C82.9363 52.319 92.6544 46.486 92.6544 39.2906C92.6544 32.0952 82.9363 26.2622 70.9483 26.2622C58.9604 26.2622 49.2422 32.0952 49.2422 39.2906C49.2422 46.486 58.9604 52.319 70.9483 52.319Z" fill="#2F2E41"/>
<path d="M131.841 320.393C131.13 320.394 130.448 320.677 129.945 321.18C129.442 321.683 129.159 322.365 129.158 323.077V414.63C129.159 415.342 129.442 416.024 129.945 416.527C130.448 417.03 131.13 417.313 131.841 417.314H443.907C444.619 417.313 445.301 417.03 445.804 416.527C446.307 416.024 446.59 415.342 446.591 414.63V323.077C446.59 322.365 446.307 321.683 445.804 321.18C445.301 320.677 444.619 320.394 443.907 320.393L131.841 320.393Z" fill="#A8DADC"/>
<path d="M135.882 410.587H439.866V327.12H135.882V410.587Z" fill="white"/>
<path d="M401.496 393.272C400.912 393.271 400.333 393.385 399.793 393.609C399.253 393.832 398.763 394.159 398.349 394.572C397.936 394.985 397.608 395.475 397.385 396.015C397.161 396.555 397.046 397.134 397.046 397.718C397.046 398.302 397.161 398.881 397.385 399.421C397.608 399.961 397.936 400.451 398.349 400.864C398.763 401.277 399.253 401.604 399.793 401.828C400.333 402.051 400.912 402.165 401.496 402.164H419.275C420.454 402.164 421.584 401.696 422.418 400.862C423.252 400.028 423.72 398.897 423.72 397.718C423.72 396.539 423.252 395.408 422.418 394.574C421.584 393.74 420.454 393.272 419.275 393.272H401.496Z" fill="#229AD2"/>
<path d="M423.72 384.647H218.48V385.817H423.72V384.647Z" fill="#A8DADC"/>
<path d="M175.578 394.752C189.876 394.752 201.467 383.157 201.467 368.853C201.467 354.55 189.876 342.955 175.578 342.955C161.28 342.955 149.689 354.55 149.689 368.853C149.689 383.157 161.28 394.752 175.578 394.752Z" fill="#229AD2"/>
<path d="M218.804 378.114L218.156 377.141L239.483 362.917L254.108 369.94L275.144 356.495L316.99 374.352L350.314 357.977L382.672 371.1L423.332 335.074L424.108 335.95L382.905 372.457L350.359 359.257L317.024 375.639L275.253 357.814L254.189 371.277L239.577 364.261L218.804 378.114Z" fill="#3F3D56"/>
<path d="M222.28 393.883C221.781 393.883 221.286 393.981 220.825 394.171C220.363 394.362 219.943 394.642 219.59 394.995C219.236 395.348 218.956 395.768 218.765 396.229C218.573 396.691 218.475 397.186 218.475 397.685C218.475 398.185 218.573 398.68 218.765 399.142C218.956 399.603 219.236 400.023 219.59 400.376C219.943 400.729 220.363 401.009 220.825 401.2C221.286 401.39 221.781 401.488 222.28 401.488H262.042C263.049 401.486 264.015 401.085 264.727 400.372C265.438 399.659 265.838 398.693 265.838 397.685C265.838 396.678 265.438 395.712 264.727 394.999C264.015 394.286 263.049 393.885 262.042 393.883H222.28Z" fill="#A8DADC"/>
<path d="M185.466 357.267H189.511L181.094 365.6C179.623 367.05 177.642 367.863 175.577 367.863C173.512 367.863 171.531 367.05 170.06 365.6L161.644 357.267H165.689L172.084 363.598C173.015 364.516 174.27 365.031 175.578 365.031C176.885 365.031 178.141 364.516 179.072 363.598L185.466 357.267ZM165.638 380.44H161.593L170.062 372.055C171.532 370.605 173.514 369.792 175.578 369.792C177.643 369.792 179.625 370.605 181.095 372.055L189.564 380.44H185.519L179.072 374.058C178.141 373.139 176.885 372.625 175.578 372.625C174.27 372.625 173.015 373.139 172.084 374.058L165.638 380.44Z" fill="white"/>
<path d="M172.478 27.1409C171.766 27.1417 171.084 27.4248 170.581 27.928C170.078 28.4312 169.795 29.1135 169.794 29.8252V121.378C169.795 122.09 170.078 122.772 170.581 123.275C171.084 123.778 171.766 124.061 172.478 124.062H484.543C485.255 124.061 485.937 123.778 486.44 123.275C486.943 122.772 487.226 122.09 487.227 121.378V29.8252C487.226 29.1135 486.943 28.4312 486.44 27.928C485.937 27.4248 485.255 27.1417 484.543 27.1409L172.478 27.1409Z" fill="#A8DADC"/>
<path d="M176.519 117.336H480.502V33.8677H176.519V117.336Z" fill="white"/>
<path d="M442.132 100.02C440.953 100.02 439.823 100.488 438.989 101.322C438.156 102.156 437.687 103.287 437.687 104.466C437.687 105.645 438.156 106.776 438.989 107.61C439.823 108.444 440.953 108.913 442.132 108.913H459.911C461.09 108.913 462.221 108.444 463.054 107.61C463.888 106.776 464.356 105.645 464.356 104.466C464.356 103.287 463.888 102.156 463.054 101.322C462.221 100.488 461.09 100.02 459.911 100.02H442.132Z" fill="#229AD2"/>
<path d="M464.356 91.3949H259.116V92.5648H464.356V91.3949Z" fill="#A8DADC"/>
<path d="M216.214 101.5C230.512 101.5 242.103 89.9046 242.103 75.6015C242.103 61.2984 230.512 49.7034 216.214 49.7034C201.916 49.7034 190.326 61.2984 190.326 75.6015C190.326 89.9046 201.916 101.5 216.214 101.5Z" fill="#229AD2"/>
<path d="M259.44 84.862L258.792 83.8885L280.119 69.6652L294.744 76.688L315.78 63.2435L316.064 63.3643L357.626 81.1002L390.95 64.7246L423.309 77.848L463.969 41.8215L464.744 42.6973L423.541 79.2046L390.996 66.0055L357.661 82.3867L315.89 64.5619L294.825 78.0245L280.214 71.0081L259.44 84.862Z" fill="#3F3D56"/>
<path d="M262.917 100.631C261.91 100.633 260.944 101.034 260.232 101.747C259.521 102.46 259.121 103.426 259.121 104.433C259.121 105.441 259.521 106.407 260.232 107.12C260.944 107.833 261.91 108.234 262.917 108.236H302.678C303.686 108.236 304.653 107.835 305.366 107.122C306.079 106.409 306.479 105.442 306.479 104.433C306.479 103.425 306.079 102.458 305.366 101.745C304.653 101.032 303.686 100.631 302.678 100.631H262.917Z" fill="#A8DADC"/>
<path d="M226.631 72.5787C227.115 69.3378 224.648 67.5956 221.275 66.4334L222.369 62.0432L219.697 61.3772L218.632 65.6517C217.931 65.4766 217.209 65.3115 216.493 65.1478L217.565 60.8452L214.896 60.1792L213.801 64.5678C213.219 64.4354 212.649 64.3045 212.095 64.1667L212.098 64.153L208.414 63.2328L207.703 66.087C207.703 66.087 209.685 66.5414 209.643 66.5696C210.013 66.6139 210.351 66.8015 210.583 67.0922C210.816 67.3828 210.926 67.7533 210.888 68.1238L209.642 73.1251C209.736 73.1487 209.829 73.1784 209.92 73.2142L209.638 73.1442L207.89 80.1503C207.852 80.2726 207.79 80.3861 207.707 80.4842C207.625 80.5824 207.524 80.6633 207.41 80.7223C207.297 80.7813 207.172 80.8172 207.045 80.828C206.917 80.8388 206.788 80.8242 206.666 80.7851C206.693 80.8239 204.725 80.3002 204.725 80.3002L203.398 83.36L206.876 84.2269C207.522 84.389 208.156 84.5587 208.779 84.7186L207.674 89.1597L210.342 89.8257L211.438 85.4325C212.166 85.6304 212.873 85.8131 213.566 85.9851L212.475 90.3577L215.146 91.0237L216.251 86.5917C220.807 87.454 224.233 87.1062 225.673 82.9855C226.835 79.667 225.616 77.7528 223.219 76.5038C224.965 76.0996 226.279 74.9511 226.63 72.5786L226.631 72.5787ZM220.527 81.1405C219.7 84.459 214.116 82.6658 212.304 82.2152L213.771 76.3325C215.582 76.7846 221.388 77.6797 220.527 81.1405H220.527ZM221.352 72.5307C220.599 75.5493 215.95 74.0156 214.441 73.6397L215.771 68.3042C217.28 68.6802 222.137 69.3819 221.352 72.5307Z" fill="white"/>
<path d="M295.251 173.767C294.539 173.768 293.857 174.051 293.354 174.554C292.851 175.057 292.568 175.739 292.567 176.451V268.004C292.568 268.716 292.851 269.398 293.354 269.901C293.857 270.404 294.539 270.687 295.251 270.688H607.317C608.028 270.687 608.71 270.404 609.213 269.901C609.716 269.398 609.999 268.716 610 268.004V176.451C609.999 175.739 609.716 175.057 609.213 174.554C608.71 174.051 608.028 173.768 607.317 173.767L295.251 173.767Z" fill="#A8DADC"/>
<path d="M299.292 263.961H603.276V180.494H299.292V263.961Z" fill="white"/>
<path d="M564.905 246.646C563.726 246.646 562.596 247.114 561.762 247.948C560.929 248.782 560.46 249.913 560.46 251.092C560.46 252.271 560.929 253.402 561.762 254.236C562.596 255.07 563.726 255.539 564.905 255.539H582.684C583.863 255.539 584.994 255.07 585.827 254.236C586.661 253.402 587.129 252.271 587.129 251.092C587.129 249.913 586.661 248.782 585.827 247.948C584.994 247.114 583.863 246.646 582.684 246.646H564.905Z" fill="#229AD2"/>
<path d="M587.13 238.021H381.889V239.191H587.13V238.021Z" fill="#A8DADC"/>
<path d="M338.988 248.126C353.286 248.126 364.876 236.531 364.876 222.227C364.876 207.924 353.286 196.329 338.988 196.329C324.69 196.329 313.099 207.924 313.099 222.227C313.099 236.531 324.69 248.126 338.988 248.126Z" fill="#229AD2"/>
<path d="M382.214 231.488L381.565 230.515L402.892 216.292L417.517 223.314L438.553 209.87L438.838 209.991L480.399 227.727L513.723 211.351L546.082 224.474L586.742 188.448L587.517 189.324L546.315 225.831L513.769 212.632L480.433 229.013L438.663 211.188L417.598 224.651L402.987 217.635L382.214 231.488Z" fill="#3F3D56"/>
<path d="M385.69 247.257C384.682 247.257 383.715 247.658 383.003 248.371C382.29 249.084 381.889 250.051 381.889 251.059C381.889 252.068 382.29 253.035 383.003 253.748C383.715 254.461 384.682 254.862 385.69 254.862H425.452C426.46 254.862 427.427 254.461 428.139 253.748C428.852 253.035 429.253 252.068 429.253 251.059C429.253 250.051 428.852 249.084 428.139 248.371C427.427 247.658 426.46 247.257 425.452 247.257H385.69Z" fill="#A8DADC"/>
<path d="M338.985 239.296L349.465 224.531L338.985 230.721L328.511 224.531L338.984 239.296H338.985Z" fill="white"/>
<path d="M338.984 228.738H338.985L349.459 222.544L338.985 205.159H338.984L328.511 222.544L338.984 228.738Z" fill="white"/>
</g>
<defs>
<clipPath id="clip0">
<rect width="610" height="422" fill="white"/>
</clipPath>
</defs>
</svg>
