<svg width="690" height="651" viewBox="0 0 690 651" fill="none" xmlns="http://www.w3.org/2000/svg">
<path d="M684.485 288.347C686.253 294.329 687.614 300.276 688.541 306.173L680.145 307.494C681.043 313.205 681.5 318.829 681.5 324.357C681.5 330.506 681.314 336.741 680.943 343.045L689.428 343.544C689.055 349.878 688.501 356.271 687.768 362.706L679.323 361.744C678.621 367.909 677.75 374.117 676.713 380.35L685.098 381.745C683.021 394.225 680.294 406.789 676.935 419.306L668.725 417.103C667.105 423.138 665.335 429.163 663.417 435.162L671.513 437.751C669.567 443.838 667.471 449.898 665.228 455.916L657.263 452.948C652.89 464.682 647.947 476.249 642.452 487.528L650.093 491.251C647.284 497.017 644.333 502.711 641.242 508.318L633.798 504.214C630.769 509.708 627.605 515.114 624.307 520.416L631.525 524.905C624.719 535.848 617.351 546.373 609.438 556.356L602.777 551.075C598.888 555.981 594.868 560.747 590.718 565.359L597.037 571.044C592.737 575.824 588.298 580.447 583.723 584.897L577.797 578.804C568.829 587.526 559.341 595.542 549.355 602.729L554.321 609.628C549.111 613.377 543.765 616.912 538.285 620.216L533.896 612.937C528.612 616.123 523.203 619.083 517.672 621.8L521.421 629.429C509.988 635.047 498.034 639.681 485.576 643.195L483.268 635.014C477.407 636.668 471.429 638.062 465.337 639.183L466.875 647.543C460.641 648.69 454.293 649.561 447.833 650.142L447.071 641.676C441.022 642.221 434.865 642.5 428.602 642.5C422.736 642.5 416.626 642.34 410.294 642.024L409.869 650.513C403.8 650.21 397.546 649.766 391.129 649.186L391.894 640.72C385.903 640.179 379.759 639.516 373.481 638.734L372.431 647.169C360.45 645.678 348.013 643.765 335.238 641.454L336.752 633.089C330.732 632 324.634 630.821 318.469 629.554L316.758 637.88C310.683 636.632 304.547 635.3 298.362 633.886L300.256 625.6C288.358 622.881 276.274 619.857 264.091 616.545L261.861 624.747C255.851 623.114 249.818 621.411 243.772 619.64L246.16 611.483C240.222 609.744 234.272 607.94 228.319 606.073L225.775 614.183C213.864 610.447 201.945 606.459 190.094 602.236L192.947 594.229C187.092 592.142 181.255 589.998 175.445 587.797L172.435 595.746C166.565 593.523 160.722 591.243 154.916 588.909L158.087 581.022C146.488 576.358 135.042 571.475 123.826 566.389L120.316 574.13C114.571 571.525 108.885 568.866 103.267 566.156L106.96 558.5C101.334 555.786 95.7804 553.021 90.3094 550.207L86.422 557.766C75.0635 551.925 64.0472 545.87 53.4659 539.622L57.788 532.303C52.4034 529.123 47.138 525.895 42.004 522.622L37.4344 529.789C32.0728 526.371 26.8471 522.9 21.771 519.38L26.6145 512.395C16.1418 505.133 6.35405 497.683 -2.63126 490.071L-8.1252 496.557C-13.0164 492.414 -17.6852 488.217 -22.1123 483.969L-16.2276 477.836C-20.7232 473.522 -24.946 469.171 -28.8783 464.786L-35.2065 470.461C-44.0317 460.619 -51.5167 450.541 -57.4389 440.269L-50.0751 436.023C-53.1054 430.767 -55.6777 425.498 -57.7732 420.222L-65.6729 423.36C-68.0338 417.416 -69.8519 411.417 -71.0865 405.371L-62.7584 403.671C-63.9099 398.032 -64.5 392.378 -64.5 386.708C-64.5 379.798 -64.1195 372.602 -63.3692 365.161L-71.8264 364.308C-71.0947 357.051 -70.0266 349.602 -68.638 341.999L-60.2763 343.526C-58.9983 336.529 -57.4383 329.381 -55.6072 322.115L-63.8495 320.038C-60.3179 306.023 -55.8152 291.631 -50.4314 277.075L-42.4592 280.023C-39.9371 273.205 -37.2162 266.344 -34.3058 259.465L-42.1339 256.153C-39.2379 249.309 -36.1593 242.451 -32.9072 235.601L-25.2287 239.247C-18.9851 226.096 -12.0886 212.97 -4.60626 200.029L-11.9648 195.774C-8.22195 189.301 -4.33534 182.875 -0.313072 176.515L6.8709 181.058C10.8155 174.82 14.8922 168.648 19.0927 162.56L12.0964 157.733C20.635 145.357 29.6805 133.32 39.1684 121.775L45.7354 127.171C50.4397 121.447 55.252 115.849 60.1639 110.395L53.8481 104.706C58.8972 99.1006 64.0527 93.6421 69.3059 88.3511L75.3378 94.3399C85.8742 83.7278 96.7898 73.8243 108.01 64.7925L102.68 58.1712C108.587 53.4161 114.583 48.8917 120.659 44.6215L125.546 51.5755C131.588 47.3291 137.699 43.3483 143.868 39.6554L139.503 32.3621C152.697 24.4651 166.2 17.8167 179.919 12.6398L182.92 20.5925C189.736 18.0208 196.588 15.8335 203.466 14.0558L201.339 5.82624C208.658 3.93449 216.023 2.48149 223.421 1.49966L224.539 9.92577C231.631 8.98454 238.74 8.5 245.856 8.5C251.563 8.5 257.437 8.72899 263.461 9.17995L264.095 0.703666C270.038 1.14856 276.102 1.80121 282.272 2.65248L281.11 11.0727C286.876 11.8683 292.748 12.8438 298.712 13.9924L300.319 5.64585C311.917 7.87953 323.812 10.7452 335.906 14.1873L333.579 22.3626C339.271 23.9825 345.012 25.7338 350.792 27.6109L353.418 19.5265C359.16 21.3912 364.935 23.3765 370.733 25.4767L367.839 33.4686C378.953 37.4944 390.163 41.9525 401.395 46.8028L404.764 38.9993C410.334 41.4044 415.906 43.9036 421.472 46.4919L417.887 54.1993C423.32 56.7258 428.749 59.339 434.164 62.0341L437.951 54.4245C448.808 59.8277 459.607 65.5542 470.284 71.567L466.113 78.9733C471.363 81.9298 476.583 84.9564 481.765 88.0485L486.121 80.7493C491.362 83.8771 496.565 87.0711 501.722 90.3269L497.184 97.5141C507.418 103.976 517.464 110.683 527.256 117.597L532.159 110.653C537.159 114.184 542.096 117.769 546.959 121.404L541.87 128.212C546.719 131.837 551.493 135.509 556.184 139.225L561.462 132.563C571.169 140.253 580.527 148.133 589.465 156.16L583.785 162.484C588.299 166.538 592.701 170.629 596.981 174.749L602.876 168.625C607.323 172.906 611.643 177.221 615.827 181.565L609.705 187.461C618.247 196.331 626.186 205.302 633.434 214.318L640.059 208.992C643.946 213.828 647.645 218.684 651.141 223.551L644.237 228.509C647.764 233.421 651.071 238.334 654.145 243.238L661.347 238.724C668.115 249.523 673.82 260.34 678.314 271.091L670.472 274.369C672.776 279.882 674.735 285.348 676.333 290.757L684.485 288.347Z" fill="url(#paint0_linear)" stroke="#F2F6FF" stroke-width="17" stroke-dasharray="40 20 20 40 20 20"/>
<defs>
<linearGradient id="paint0_linear" x1="308.5" y1="0" x2="308.5" y2="651" gradientUnits="userSpaceOnUse">
<stop stop-color="#7384E9"/>
<stop offset="1" stop-color="#B698EC"/>
</linearGradient>
</defs>
</svg>
