<svg width="40" height="23" viewBox="0 0 40 23" fill="none" xmlns="http://www.w3.org/2000/svg">
<path d="M40 22.4035C38.545 22.7702 37.645 22.4196 36.8375 21.2179L31.095 13.3436L30.265 12.2534L23.5588 21.2439C22.7925 22.3255 21.9888 22.7963 20.5588 22.4134L29.1463 10.9885L21.1513 0.668629C22.5263 0.403509 23.4763 0.538547 24.32 1.75884L30.2763 9.73104L36.2763 1.80221C37.045 0.720663 37.8713 0.309354 39.2513 0.708274L36.1513 4.78171L31.9513 10.2018C31.4513 10.8213 31.52 11.2449 31.98 11.8433L40 22.4035ZM0.01 10.7977L0.7125 7.37345C2.625 0.596775 10.4625 -2.2192 15.8675 1.96821C19.0263 4.43111 19.8113 7.91484 19.655 11.8173H1.85C1.5825 18.8418 6.68375 23.0812 13.1875 20.9181C15.4688 20.1587 16.8125 18.3883 17.485 16.1732C17.8263 15.0632 18.3913 14.8897 19.4438 15.2069C18.9063 17.977 17.6938 20.2912 15.1313 21.7395C11.3025 23.9075 5.8375 23.2063 2.9625 20.1934C1.25 18.4453 0.5425 16.2302 0.225 13.8615C0.175 13.47 0.075 13.0971 0 12.7217C0.00666667 12.0808 0.01 11.4399 0.01 10.799V10.7977ZM1.8825 10.3269H17.9725C17.8675 5.24753 14.6763 1.63991 10.315 1.60894C5.5275 1.57177 2.09 5.09391 1.8825 10.3269Z" fill="#F2F6FF"/>
</svg>
