<svg width="44" height="44" viewBox="0 0 44 44" fill="none" xmlns="http://www.w3.org/2000/svg">
<path d="M1.90489 6.95031C1.99035 6.71877 2.18748 6.54465 2.43024 6.48625L27.9212 0.354322C28.5118 0.21226 29.0183 0.787595 28.7926 1.34416L26.7315 6.42796C26.6419 6.64919 26.4493 6.81404 26.2145 6.87051L0.926058 12.9537C0.345818 13.0933 -0.157968 12.5388 0.0463059 11.9854L1.90489 6.95031Z" fill="#1A2151"/>
<path d="M29.4032 0.00593075C29.4051 0.0123266 29.3989 0.0182033 29.3925 0.016106C29.3845 0.0134959 29.385 0.00220368 29.3932 0.000237042C29.3975 -0.000808673 29.4019 0.00169815 29.4032 0.00593075Z" fill="#1A2151"/>
<path d="M10.9819 8.54988C10.9819 8.14274 11.3166 7.81268 11.7295 7.81268H16.2154C16.6283 7.81268 16.963 8.14274 16.963 8.54988V36.5635C16.963 36.9706 16.6283 37.3007 16.2154 37.3007H11.7295C11.3166 37.3007 10.9819 36.9706 10.9819 36.5635V8.54988Z" fill="#1A2151"/>
<path d="M22.7932 15.5982C22.794 15.2667 23.0191 14.9766 23.3433 14.889L27.322 13.8142C27.7932 13.6869 28.2596 14.0322 28.2671 14.514L28.6922 42.0378C28.6974 42.3738 28.4714 42.6707 28.1428 42.7598L23.6682 43.9732C23.1915 44.1025 22.7211 43.748 22.7223 43.2605L22.7932 15.5982Z" fill="#1A2151"/>
<path d="M43.673 33.7572C43.8799 33.1967 43.3612 32.6386 42.7769 32.793L23.3145 37.9351C22.9157 38.0404 22.679 38.4447 22.7858 38.838L23.9469 43.1104C24.0537 43.5037 24.4637 43.7371 24.8625 43.6317L41.2909 39.2912C41.5266 39.229 41.7166 39.0573 41.8 38.8313L43.673 33.7572Z" fill="#1A2151"/>
<path d="M43.8483 10.6496C44.0551 10.0891 43.5365 9.53098 42.9522 9.68536L23.5168 14.8203C23.1179 14.9257 22.8812 15.3299 22.9881 15.7232L24.1491 19.9957C24.256 20.389 24.666 20.6223 25.0648 20.517L41.4662 16.1836C41.7018 16.1213 41.8918 15.9497 41.9753 15.7237L43.8483 10.6496Z" fill="#1A2151"/>
<path d="M43.9536 21.9746C44.1605 21.4141 43.6419 20.856 43.0576 21.0104L23.5168 26.1732C23.1179 26.2786 22.8812 26.6828 22.9881 27.0761L24.1491 31.3486C24.256 31.7418 24.666 31.9752 25.0648 31.8698L41.5716 27.5086C41.8072 27.4464 41.9972 27.2747 42.0807 27.0487L43.9536 21.9746Z" fill="#1A2151"/>
</svg>
