<svg width="62" height="52" viewBox="0 0 62 52" fill="none" xmlns="http://www.w3.org/2000/svg">
<g filter="url(#filter0_d)">
<path d="M53.2539 5.83789H8.74609C6.13237 5.83789 4 7.77071 4 10.1445V38.8555C4 41.2212 6.12287 43.1621 8.74609 43.1621H53.2539C55.8611 43.1621 58 41.2358 58 38.8555V10.1445C58 7.77875 55.8771 5.83789 53.2539 5.83789ZM52.5985 8.70898L31.1006 28.2164L9.41677 8.70898H52.5985ZM7.16406 38.261V10.7254L22.4021 24.4339L7.16406 38.261ZM9.40137 40.291L24.649 26.4552L29.9917 31.2616C30.6102 31.818 31.6082 31.8162 32.2242 31.2572L37.4336 26.5302L52.5986 40.291H9.40137ZM54.8359 38.2609L39.6709 24.5L54.8359 10.739V38.2609Z" fill="url(#paint0_linear)"/>
</g>
<defs>
<filter id="filter0_d" x="0" y="0" width="62" height="57" filterUnits="userSpaceOnUse" color-interpolation-filters="sRGB">
<feFlood flood-opacity="0" result="BackgroundImageFix"/>
<feColorMatrix in="SourceAlpha" type="matrix" values="0 0 0 0 0 0 0 0 0 0 0 0 0 0 0 0 0 0 127 0"/>
<feOffset dy="4"/>
<feGaussianBlur stdDeviation="2"/>
<feColorMatrix type="matrix" values="0 0 0 0 0 0 0 0 0 0 0 0 0 0 0 0 0 0 0.25 0"/>
<feBlend mode="normal" in2="BackgroundImageFix" result="effect1_dropShadow"/>
<feBlend mode="normal" in="SourceGraphic" in2="effect1_dropShadow" result="shape"/>
</filter>
<linearGradient id="paint0_linear" x1="56.6173" y1="22.934" x2="13.3021" y2="33.8537" gradientUnits="userSpaceOnUse">
<stop offset="0.619792" stop-color="#22D2B2"/>
<stop offset="1" stop-color="#229AD2"/>
</linearGradient>
</defs>
</svg>
