<svg width="46" height="50" viewBox="0 0 46 50" fill="none" xmlns="http://www.w3.org/2000/svg">
<g clip-path="url(#clip0)">
<path d="M21.2733 1.26472C22.4951 0.573642 24.0866 0.57052 25.3074 1.26472C31.4491 4.6939 37.5927 8.11771 43.7333 11.549C44.8883 12.1918 45.6608 13.462 45.6491 14.777V35.4083C45.6577 36.7778 44.8088 38.0782 43.5903 38.7065C37.4688 42.1168 31.3504 45.5313 25.23 48.9415C23.9829 49.6461 22.3595 49.5919 21.1513 48.8295C19.3161 47.7783 17.4777 46.7322 15.6423 45.682C15.2673 45.461 14.8445 45.2852 14.5797 44.9259C14.8138 44.6141 15.2324 44.5752 15.5725 44.4391C16.3385 44.1984 17.0421 43.812 17.7459 43.4371C17.9238 43.3167 18.1411 43.3628 18.3117 43.4705C19.881 44.3596 21.4365 45.2746 23.0111 46.1552C23.347 46.3469 23.6871 46.0924 23.9743 45.9343C29.9813 42.5795 35.9958 39.2374 42.0018 35.8815C42.2243 35.7758 42.3474 35.5423 42.3293 35.3015C42.3335 28.4956 42.3303 21.6886 42.3314 14.8828C42.3568 14.6095 42.1968 14.3582 41.9467 14.2463C35.8464 10.8517 29.7493 7.45178 23.6501 4.05624C23.5444 3.98445 23.4193 3.94594 23.291 3.94575C23.1628 3.94556 23.0375 3.98372 22.9316 4.0552C16.8324 7.45178 10.7363 10.8548 4.63714 14.2493C4.38792 14.3613 4.22067 14.6084 4.25033 14.8828C4.25138 21.6886 4.25033 28.4956 4.25033 35.3025C4.23975 35.42 4.26588 35.5379 4.32518 35.6404C4.38449 35.7428 4.47413 35.8248 4.58203 35.8753C6.20963 36.7873 7.83934 37.6929 9.468 38.6018C10.3855 39.0898 11.5121 39.3798 12.523 39.0059C13.415 38.6897 14.0403 37.7902 14.0233 36.8543C14.0317 30.0881 14.0191 23.321 14.0296 16.5559C14.0073 16.2556 14.2957 16.0074 14.5912 16.0357C15.3733 16.0305 16.1564 16.0253 16.9384 16.0377C17.2648 16.0305 17.4895 16.3539 17.4491 16.6565C17.446 23.4655 17.4575 30.2746 17.4438 37.0835C17.446 38.8982 16.6915 40.8727 14.9928 41.7606C12.9001 42.8318 10.3136 42.6046 8.24615 41.5775C6.45639 40.6948 4.7484 39.6531 2.9904 38.7074C1.76874 38.0826 0.924047 36.7769 0.932646 35.4085V14.777C0.919835 13.4347 1.72311 12.1415 2.91406 11.508C9.03451 8.09499 15.1539 4.67933 21.2733 1.26472Z" fill="#8CC84B"/>
<path d="M26.6132 15.5562C29.2826 15.3864 32.1403 15.4556 34.5424 16.755C36.4021 17.7508 37.4332 19.8407 37.466 21.8823C37.4141 22.1577 37.1228 22.3096 36.8567 22.2907C36.0822 22.2897 35.3075 22.3011 34.5331 22.2855C34.2045 22.298 34.0136 21.9987 33.9723 21.7117C33.7498 20.7348 33.2106 19.7673 32.2801 19.2961C30.8517 18.5895 29.1955 18.625 27.6379 18.6398C26.5009 18.6994 25.2781 18.7967 24.3148 19.4574C23.5753 19.9579 23.3506 20.9683 23.6146 21.7819C23.8634 22.3662 24.546 22.5547 25.1044 22.7285C28.3213 23.5598 31.7303 23.4771 34.8858 24.5712C36.1922 25.0172 37.4703 25.8843 37.9174 27.2359C38.5024 29.0475 38.246 31.2128 36.9416 32.6671C35.8839 33.8638 34.3433 34.5152 32.8068 34.869C30.7627 35.3193 28.6415 35.3308 26.5656 35.1308C24.6137 34.9109 22.5824 34.4042 21.0756 33.09C19.787 31.9845 19.1577 30.2619 19.2202 28.5994C19.2351 28.3186 19.518 28.1228 19.7902 28.1459C20.5701 28.1396 21.3501 28.1376 22.13 28.1469C22.4415 28.1249 22.6725 28.3909 22.6884 28.681C22.8324 29.6118 23.1863 30.5887 24.0077 31.1405C25.5928 32.151 27.5818 32.0818 29.3968 32.1101C30.9005 32.0442 32.5885 32.0242 33.8156 31.0421C34.463 30.482 34.6549 29.5448 34.4799 28.7386C34.2903 28.058 33.5697 27.7408 32.9509 27.5334C29.7752 26.5407 26.3282 26.9009 23.1832 25.7784C21.9064 25.3325 20.6718 24.4895 20.1812 23.1934C19.4968 21.359 19.8104 19.09 21.2514 17.6847C22.6565 16.287 24.6848 15.7487 26.6132 15.556V15.5562Z" fill="#8CC84B"/>
</g>
<defs>
<clipPath id="clip0">
<rect width="44.9383" height="48.9041" fill="white" transform="translate(0.827148 0.64386)"/>
</clipPath>
</defs>
</svg>
