<svg width="43" height="47" viewBox="0 0 43 47" fill="none" xmlns="http://www.w3.org/2000/svg">
<g clip-path="url(#clip0)">
<path d="M42.9084 36.4164C42.7868 36.0159 42.013 35.4258 40.5876 34.6476C40.2014 34.4023 39.6512 34.069 38.9392 33.6461C38.2266 33.2232 37.5798 32.8335 37 32.4774C36.4189 32.1214 35.8746 31.7765 35.3659 31.4432C35.2846 31.3764 35.0302 31.182 34.6026 30.8586C34.1747 30.5361 33.8138 30.2968 33.518 30.1407C33.2229 29.9856 32.9326 29.9075 32.6475 29.9075C32.2404 29.9075 31.7319 30.2248 31.1213 30.8586C30.5108 31.4932 29.9507 32.1825 29.442 32.9287C28.9331 33.6745 28.3935 34.3638 27.824 34.9981C27.2537 35.6326 26.785 35.9496 26.419 35.9496C26.2352 35.9496 26.0061 35.8936 25.7315 35.7831C25.4571 35.6719 25.2483 35.5766 25.1049 35.4998C24.9629 35.4213 24.7191 35.2661 24.3728 35.0317C24.0258 34.7979 23.8328 34.6699 23.7921 34.6476C21.003 32.9559 18.6109 31.0198 16.6155 28.8397C14.6207 26.6583 12.8491 24.0439 11.3019 20.995C11.2815 20.9504 11.1642 20.7389 10.9506 20.3608C10.7367 19.9823 10.5941 19.7157 10.5228 19.5595C10.4516 19.4038 10.3651 19.1756 10.2634 18.8753C10.1618 18.5749 10.1108 18.3247 10.1108 18.1242C10.1108 17.7239 10.401 17.2118 10.9813 16.5886C11.5615 15.9658 12.1928 15.3759 12.8746 14.8199C13.5569 14.264 14.1876 13.6518 14.768 12.9845C15.3482 12.3168 15.6383 11.7607 15.6383 11.3157C15.6383 11.0044 15.567 10.6869 15.4246 10.3644C15.2822 10.0411 15.0633 9.64662 14.768 9.17908C14.4725 8.71176 14.2944 8.43385 14.2333 8.34441C13.9282 7.78848 13.613 7.19326 13.2868 6.55899C12.9607 5.92484 12.6047 5.21796 12.2177 4.43918C11.831 3.66076 11.5259 3.05969 11.3017 2.63692C10.5895 1.07949 10.05 0.233481 9.68348 0.100431C9.54089 0.0336718 9.32696 0 9.04222 0C8.4922 0 7.77468 0.11107 6.88911 0.333912C6.00322 0.556403 5.30612 0.789768 4.79707 1.03494C3.77908 1.50202 2.70012 2.85941 1.55986 5.10666C0.521546 7.19805 0.00244141 9.26805 0.00244141 11.3151C0.00244141 11.9155 0.038061 12.4996 0.1093 13.0676C0.180539 13.635 0.307828 14.2749 0.491275 14.9871C0.6744 15.6991 0.82212 16.2281 0.933792 16.5725C1.04557 16.9172 1.25426 17.5346 1.55975 18.425C1.86482 19.3152 2.04827 19.8602 2.10934 20.0604C2.82184 22.2414 3.66677 24.1884 4.6439 25.902C6.25159 28.7503 8.44556 31.6939 11.2245 34.7317C14.0036 37.7691 16.6962 40.1671 19.3023 41.925C20.8698 42.9929 22.6518 43.9163 24.6468 44.6957C24.8301 44.7621 25.3287 44.9622 26.1428 45.2968C26.9573 45.6304 27.5224 45.8586 27.8377 45.981C28.1531 46.1035 28.6372 46.2651 29.288 46.4656C29.9403 46.6661 30.5252 46.8052 31.0443 46.8837C31.5637 46.9605 32.0982 47.0001 32.6476 47.0001C34.5204 47.0001 36.4143 46.4324 38.328 45.2976C40.3838 44.0517 41.6254 42.8722 42.0529 41.7587C42.2777 41.2028 42.4907 40.4407 42.6943 39.4724C42.8985 38.5045 42.9999 37.7204 42.9999 37.1193C43.0005 36.8068 42.9698 36.5736 42.9084 36.4164Z" fill="url(#paint0_linear)"/>
</g>
<defs>
<linearGradient id="paint0_linear" x1="41.8989" y1="21.5281" x2="6.12627" y2="27.2305" gradientUnits="userSpaceOnUse">
<stop offset="0.619792" stop-color="#22D2B2"/>
<stop offset="1" stop-color="#229AD2"/>
</linearGradient>
<clipPath id="clip0">
<rect width="43" height="47" fill="white"/>
</clipPath>
</defs>
</svg>
