<svg width="1444" height="723" viewBox="0 0 1444 723" fill="none" xmlns="http://www.w3.org/2000/svg">
<path d="M252.615 685.357C118.881 614.23 41.4715 479.363 -5 346.439V63.1388C-2.24308 56.9114 0.561155 50.6877 3.36905 44.4559C10.5915 28.4265 17.8384 12.3428 24.368 -4H1294.6C1300.96 2.69675 1307.35 9.37819 1313.73 16.0507C1362.38 66.9254 1410.53 117.28 1444 169.934V461.431C1396.12 538.729 1315.66 600.475 1230.58 644.624C1143.38 689.875 1033.24 682.884 921.341 675.781C868.232 672.41 814.724 669.013 763.081 671.164C706.273 673.531 649.949 685.391 594.012 697.169L594.011 697.169C478.864 721.416 365.352 745.318 252.615 685.357Z" fill="url(#paint0_linear)"/>
<defs>
<linearGradient id="paint0_linear" x1="719.5" y1="-4" x2="719.5" y2="723" gradientUnits="userSpaceOnUse">
<stop offset="0.723958" stop-color="#7384E9"/>
<stop offset="1" stop-color="#B698EC"/>
</linearGradient>
</defs>
</svg>
