<svg width="1449" height="727" viewBox="0 0 1449 727" fill="none" xmlns="http://www.w3.org/2000/svg">
<path d="M257.615 689.357C123.881 618.23 46.4715 483.363 0 350.439V67.1388C2.75692 60.9114 5.56115 54.6877 8.36905 48.4559C15.5915 32.4265 22.8384 16.3428 29.368 0H1299.6C1305.96 6.69675 1312.35 13.3782 1318.73 20.0507C1367.38 70.9254 1415.53 121.28 1449 173.934V465.431C1401.12 542.729 1320.66 604.475 1235.58 648.624C1148.38 693.875 1038.24 686.884 926.341 679.781C873.232 676.41 819.724 673.013 768.081 675.164C711.273 677.531 654.949 689.391 599.012 701.169L599.011 701.169C483.864 725.416 370.352 749.318 257.615 689.357Z" fill="url(#paint0_linear)"/>
<defs>
<linearGradient id="paint0_linear" x1="724.5" y1="0" x2="724.5" y2="727" gradientUnits="userSpaceOnUse">
<stop offset="0.4375" stop-color="#2242D2"/>
<stop offset="0.65625" stop-color="#5A22D2"/>
</linearGradient>
</defs>
</svg>
