<svg width="1442" height="764" viewBox="0 0 1442 764" fill="none" xmlns="http://www.w3.org/2000/svg">
<path d="M0 307.301C44.6014 405.13 130.936 482.906 218.968 558.811C228.622 567.135 238.269 575.57 247.947 584.032C333.793 659.091 422.028 736.239 538.999 756.933C670.669 780.227 803.85 741.009 914.824 681.917C983.442 645.38 1024.47 587.527 1066.19 528.707L1066.19 528.706C1087.81 498.21 1109.63 467.454 1135.56 439.274C1170.57 401.244 1218.83 368.192 1266.67 335.43C1360.31 271.299 1452.33 208.281 1440.09 111.219C1433.81 61.4758 1401.1 24.847 1355.87 -6H0V307.301Z" fill="url(#paint0_linear)"/>
<defs>
<linearGradient id="paint0_linear" x1="1404.29" y1="346.578" x2="293.061" y2="709.105" gradientUnits="userSpaceOnUse">
<stop offset="0.619792" stop-color="#22D2B2"/>
<stop offset="1" stop-color="#229AD2"/>
</linearGradient>
</defs>
</svg>
