<svg width="45" height="45" viewBox="0 0 45 45" fill="none" xmlns="http://www.w3.org/2000/svg">
<path d="M2.70409 7.58178C2.78932 7.35024 2.9859 7.17612 3.22799 7.11772L28.6488 0.985792C29.2377 0.84373 29.7428 1.41906 29.5178 1.97563L27.4624 7.05943C27.373 7.28066 27.1809 7.44551 26.9468 7.50198L1.72795 13.5852C1.14931 13.7248 0.64691 13.1703 0.850622 12.6169L2.70409 7.58178Z" fill="#F2F6FF"/>
<path d="M30.1267 0.6374C30.1286 0.643796 30.1224 0.649673 30.116 0.647576C30.1081 0.644966 30.1085 0.633673 30.1167 0.631707C30.121 0.630661 30.1254 0.633168 30.1267 0.6374Z" fill="#F2F6FF"/>
<path d="M11.7561 9.18135C11.7561 8.77421 12.0899 8.44415 12.5017 8.44415H16.9752C17.3869 8.44415 17.7207 8.77421 17.7207 9.18135V37.1949C17.7207 37.6021 17.3869 37.9321 16.9752 37.9321H12.5017C12.0899 37.9321 11.7561 37.6021 11.7561 37.1949V9.18135Z" fill="#F2F6FF"/>
<path d="M23.5349 16.2296C23.5357 15.8982 23.7601 15.6081 24.0834 15.5205L28.0512 14.4457C28.5212 14.3184 28.9863 14.6637 28.9937 15.1454L29.4176 42.6693C29.4228 43.0053 29.1975 43.3022 28.8698 43.3913L24.4075 44.6047C23.9321 44.7339 23.463 44.3795 23.4642 43.892L23.5349 16.2296Z" fill="#F2F6FF"/>
<path d="M44.3572 34.3887C44.5635 33.8282 44.0463 33.2701 43.4636 33.4244L24.0548 38.5665C23.657 38.6719 23.421 39.0762 23.5275 39.4694L24.6854 43.7419C24.7919 44.1352 25.2008 44.3686 25.5985 44.2632L41.9817 39.9227C42.2167 39.8604 42.4062 39.6888 42.4894 39.4627L44.3572 34.3887Z" fill="#F2F6FF"/>
<path d="M44.532 11.281C44.7383 10.7206 44.2211 10.1625 43.6384 10.3168L24.2565 15.4518C23.8587 15.5572 23.6227 15.9614 23.7293 16.3547L24.8871 20.6272C24.9937 21.0204 25.4025 21.2538 25.8002 21.1484L42.1565 16.8151C42.3915 16.7528 42.581 16.5811 42.6642 16.3551L44.532 11.281Z" fill="#F2F6FF"/>
<path d="M44.6371 22.6061C44.8434 22.0456 44.3262 21.4875 43.7435 21.6419L24.2565 26.8047C23.8587 26.91 23.6227 27.3143 23.7293 27.7075L24.8871 31.98C24.9937 32.3733 25.4025 32.6067 25.8002 32.5013L42.2616 28.1401C42.4966 28.0778 42.686 27.9062 42.7692 27.6802L44.6371 22.6061Z" fill="#F2F6FF"/>
</svg>
