<svg width="1449" height="727" viewBox="0 0 1449 727" fill="none" xmlns="http://www.w3.org/2000/svg">
<path fill-rule="evenodd" clip-rule="evenodd" d="M908.257 -502.252C1043.27 -408.035 1074.47 -253.279 1163.63 -125.201C1264.79 20.099 1456.82 143.005 1465.19 297.737C1473.74 455.699 1345.84 575.376 1205.45 647.761C1076 714.503 896.352 667.622 734.818 674.307C559.907 681.545 389.559 777.611 220.932 688.503C52.1794 599.329 -27.4859 409.989 -68.3945 249.865C-102.906 114.78 16.6678 18.8509 16.1187 -113.172C15.4505 -273.801 -166.823 -473.504 -71.9027 -593.473C20.0737 -709.721 251.323 -653.517 430.452 -636.846C593.594 -621.663 766.746 -601.004 908.257 -502.252Z" fill="url(#paint0_linear)"/>
<defs>
<linearGradient id="paint0_linear" x1="922.741" y1="-496.217" x2="234.023" y2="696.405" gradientUnits="userSpaceOnUse">
    <stop offset="0.4375" stop-color="#2242D2"/>
    <stop offset="0.65625" stop-color="#5A22D2"/>
</linearGradient>
</defs>
</svg>
