<svg width="1430" height="768" viewBox="0 0 1430 768" fill="none" xmlns="http://www.w3.org/2000/svg">
<path fill-rule="evenodd" clip-rule="evenodd" d="M717.49 -470.369C551.595 -480.656 492.693 -280.672 353.89 -208.015C233.606 -145.052 45.2003 -179.77 -31.5996 -78.2557C-109.092 24.1742 -65.9712 166.943 -20.9517 287.451C19.7974 396.528 112.796 480.596 207.769 562.487C303.067 644.656 397.643 737.583 527.8 760.609C659.47 783.903 792.651 744.685 903.625 685.594C1007.82 630.112 1048.4 525.486 1124.36 442.95C1227.88 330.479 1447.39 261.542 1428.89 114.895C1410.74 -28.9695 1171.48 -63.1383 1047.67 -164.995C927.959 -263.484 879.24 -460.34 717.49 -470.369Z" fill="url(#paint0_linear)"/>
<defs>
<linearGradient id="paint0_linear" x1="-28.2885" y1="-8.21712" x2="1145.78" y2="433.615" gradientUnits="userSpaceOnUse">
<stop offset="0.619792" stop-color="#22D2B2"/>
<stop offset="1" stop-color="#229AD2"/>
</linearGradient>
</defs>
</svg>
